<mxfile host="65bd71144e">
    <diagram id="U24rfbvVpqavQ7cnuj1m" name="ページ1">
        <mxGraphModel dx="1404" dy="306" grid="1" gridSize="10" guides="1" tooltips="1" connect="1" arrows="1" fold="1" page="1" pageScale="1" pageWidth="850" pageHeight="1100" math="0" shadow="0">
            <root>
                <mxCell id="0"/>
                <mxCell id="1" parent="0"/>
                <mxCell id="62" value="" style="rounded=1;whiteSpace=wrap;html=1;strokeColor=#3333FF;" parent="1" vertex="1">
                    <mxGeometry x="-430" y="150" width="1450" height="890" as="geometry"/>
                </mxCell>
                <mxCell id="2" value="AWS Cloud" style="points=[[0,0],[0.25,0],[0.5,0],[0.75,0],[1,0],[1,0.25],[1,0.5],[1,0.75],[1,1],[0.75,1],[0.5,1],[0.25,1],[0,1],[0,0.75],[0,0.5],[0,0.25]];outlineConnect=0;gradientColor=none;html=1;whiteSpace=wrap;fontSize=12;fontStyle=0;container=1;pointerEvents=0;collapsible=0;recursiveResize=0;shape=mxgraph.aws4.group;grIcon=mxgraph.aws4.group_aws_cloud_alt;strokeColor=#232F3E;fillColor=none;verticalAlign=top;align=left;spacingLeft=30;fontColor=#232F3E;dashed=0;" parent="1" vertex="1">
                    <mxGeometry x="30" y="210" width="900" height="590" as="geometry"/>
                </mxCell>
                <mxCell id="3" value="" style="sketch=0;points=[[0,0,0],[0.25,0,0],[0.5,0,0],[0.75,0,0],[1,0,0],[0,1,0],[0.25,1,0],[0.5,1,0],[0.75,1,0],[1,1,0],[0,0.25,0],[0,0.5,0],[0,0.75,0],[1,0.25,0],[1,0.5,0],[1,0.75,0]];outlineConnect=0;fontColor=#232F3E;gradientColor=#F78E04;gradientDirection=north;fillColor=#D05C17;strokeColor=#ffffff;dashed=0;verticalLabelPosition=bottom;verticalAlign=top;align=center;html=1;fontSize=12;fontStyle=0;aspect=fixed;shape=mxgraph.aws4.resourceIcon;resIcon=mxgraph.aws4.ecr;" parent="2" vertex="1">
                    <mxGeometry x="45" y="50" width="50" height="50" as="geometry"/>
                </mxCell>
                <mxCell id="98" style="edgeStyle=none;html=1;exitX=0.5;exitY=1;exitDx=0;exitDy=0;exitPerimeter=0;entryX=0.5;entryY=0;entryDx=0;entryDy=0;entryPerimeter=0;startArrow=none;" parent="2" source="41" target="93" edge="1">
                    <mxGeometry relative="1" as="geometry"/>
                </mxCell>
                <mxCell id="6" value="VPC" style="points=[[0,0],[0.25,0],[0.5,0],[0.75,0],[1,0],[1,0.25],[1,0.5],[1,0.75],[1,1],[0.75,1],[0.5,1],[0.25,1],[0,1],[0,0.75],[0,0.5],[0,0.25]];outlineConnect=0;gradientColor=none;html=1;whiteSpace=wrap;fontSize=12;fontStyle=0;container=1;pointerEvents=0;collapsible=0;recursiveResize=0;shape=mxgraph.aws4.group;grIcon=mxgraph.aws4.group_vpc;strokeColor=#248814;fillColor=none;verticalAlign=top;align=left;spacingLeft=30;fontColor=#AAB7B8;dashed=0;" parent="2" vertex="1">
                    <mxGeometry x="130" y="140" width="550" height="435" as="geometry"/>
                </mxCell>
                <mxCell id="44" value="Private subnet" style="points=[[0,0],[0.25,0],[0.5,0],[0.75,0],[1,0],[1,0.25],[1,0.5],[1,0.75],[1,1],[0.75,1],[0.5,1],[0.25,1],[0,1],[0,0.75],[0,0.5],[0,0.25]];outlineConnect=0;gradientColor=none;html=1;whiteSpace=wrap;fontSize=12;fontStyle=0;container=1;pointerEvents=0;collapsible=0;recursiveResize=0;shape=mxgraph.aws4.group;grIcon=mxgraph.aws4.group_security_group;grStroke=0;strokeColor=#147EBA;fillColor=#E6F2F8;verticalAlign=top;align=left;spacingLeft=30;fontColor=#147EBA;dashed=0;" parent="6" vertex="1">
                    <mxGeometry x="45" y="48" width="455" height="362" as="geometry"/>
                </mxCell>
                <mxCell id="8" value="" style="rounded=0;whiteSpace=wrap;html=1;fillColor=none;strokeColor=#d25f17;" parent="44" vertex="1">
                    <mxGeometry x="30" y="32" width="360" height="308" as="geometry"/>
                </mxCell>
                <mxCell id="4" value="" style="sketch=0;points=[[0,0,0],[0.25,0,0],[0.5,0,0],[0.75,0,0],[1,0,0],[0,1,0],[0.25,1,0],[0.5,1,0],[0.75,1,0],[1,1,0],[0,0.25,0],[0,0.5,0],[0,0.75,0],[1,0.25,0],[1,0.5,0],[1,0.75,0]];outlineConnect=0;fontColor=#232F3E;gradientColor=#F78E04;gradientDirection=north;fillColor=#D05C17;strokeColor=#ffffff;dashed=0;verticalLabelPosition=bottom;verticalAlign=top;align=center;html=1;fontSize=12;fontStyle=0;aspect=fixed;shape=mxgraph.aws4.resourceIcon;resIcon=mxgraph.aws4.ecs;" parent="44" vertex="1">
                    <mxGeometry x="30" y="32" width="50" height="50" as="geometry"/>
                </mxCell>
                <mxCell id="43" value="ECS" style="text;html=1;strokeColor=none;fillColor=none;align=center;verticalAlign=middle;whiteSpace=wrap;rounded=0;" parent="44" vertex="1">
                    <mxGeometry x="16" y="82" width="78" height="30" as="geometry"/>
                </mxCell>
                <mxCell id="54" value="" style="rounded=0;whiteSpace=wrap;html=1;strokeColor=#df6f0f;fillColor=none;" parent="44" vertex="1">
                    <mxGeometry x="85" y="92" width="245" height="208" as="geometry"/>
                </mxCell>
                <mxCell id="39" value="Training Task" style="text;html=1;strokeColor=none;fillColor=none;align=center;verticalAlign=middle;whiteSpace=wrap;rounded=0;" parent="44" vertex="1">
                    <mxGeometry x="163" y="217.3" width="78" height="30" as="geometry"/>
                </mxCell>
                <mxCell id="52" value="" style="sketch=0;points=[[0,0,0],[0.25,0,0],[0.5,0,0],[0.75,0,0],[1,0,0],[0,1,0],[0.25,1,0],[0.5,1,0],[0.75,1,0],[1,1,0],[0,0.25,0],[0,0.5,0],[0,0.75,0],[1,0.25,0],[1,0.5,0],[1,0.75,0]];outlineConnect=0;fontColor=#232F3E;gradientColor=#F78E04;gradientDirection=north;fillColor=#D05C17;strokeColor=#ffffff;dashed=0;verticalLabelPosition=bottom;verticalAlign=top;align=center;html=1;fontSize=12;fontStyle=0;aspect=fixed;shape=mxgraph.aws4.resourceIcon;resIcon=mxgraph.aws4.fargate;" parent="44" vertex="1">
                    <mxGeometry x="85" y="92" width="50" height="50" as="geometry"/>
                </mxCell>
                <mxCell id="83" value="Fargate" style="text;html=1;strokeColor=none;fillColor=none;align=center;verticalAlign=middle;whiteSpace=wrap;rounded=0;" parent="44" vertex="1">
                    <mxGeometry x="71" y="142.00000000000006" width="78" height="30" as="geometry"/>
                </mxCell>
                <mxCell id="22" value="" style="sketch=0;outlineConnect=0;fontColor=#232F3E;gradientColor=none;fillColor=#D45B07;strokeColor=none;dashed=0;verticalLabelPosition=bottom;verticalAlign=top;align=center;html=1;fontSize=12;fontStyle=0;aspect=fixed;pointerEvents=1;shape=mxgraph.aws4.container_1;shadow=0;" parent="44" vertex="1">
                    <mxGeometry x="177" y="185.01" width="50" height="32.29" as="geometry"/>
                </mxCell>
                <mxCell id="108" value="Endpoint" style="text;html=1;strokeColor=none;fillColor=none;align=center;verticalAlign=middle;whiteSpace=wrap;rounded=0;" parent="44" vertex="1">
                    <mxGeometry x="163" y="22" width="78" height="30" as="geometry"/>
                </mxCell>
                <mxCell id="107" value="" style="sketch=0;outlineConnect=0;fontColor=#232F3E;gradientColor=none;fillColor=#4D27AA;strokeColor=none;dashed=0;verticalLabelPosition=bottom;verticalAlign=top;align=center;html=1;fontSize=12;fontStyle=0;aspect=fixed;pointerEvents=1;shape=mxgraph.aws4.endpoints;" parent="6" vertex="1">
                    <mxGeometry x="480" y="229.14999999999998" width="40" height="40" as="geometry"/>
                </mxCell>
                <mxCell id="100" value="Run Training Task" style="text;html=1;strokeColor=none;fillColor=none;align=center;verticalAlign=middle;whiteSpace=wrap;rounded=0;" parent="6" vertex="1">
                    <mxGeometry x="-60" y="249.14999999999998" width="106" height="30" as="geometry"/>
                </mxCell>
                <mxCell id="90" value="Endpoint" style="text;html=1;strokeColor=none;fillColor=none;align=center;verticalAlign=middle;whiteSpace=wrap;rounded=0;" parent="6" vertex="1">
                    <mxGeometry x="461" y="269.15" width="78" height="30" as="geometry"/>
                </mxCell>
                <mxCell id="113" style="edgeStyle=none;html=1;" edge="1" parent="6" source="22" target="107">
                    <mxGeometry relative="1" as="geometry"/>
                </mxCell>
                <mxCell id="47" value="" style="endArrow=classic;html=1;edgeStyle=orthogonalEdgeStyle;startArrow=none;exitX=0.5;exitY=1;exitDx=0;exitDy=0;exitPerimeter=0;" parent="2" source="112" target="54" edge="1">
                    <mxGeometry width="50" height="50" relative="1" as="geometry">
                        <mxPoint x="180" y="70" as="sourcePoint"/>
                        <mxPoint x="190" y="200" as="targetPoint"/>
                    </mxGeometry>
                </mxCell>
                <mxCell id="48" value="Pull Image" style="text;html=1;strokeColor=none;fillColor=none;align=center;verticalAlign=middle;whiteSpace=wrap;rounded=0;" parent="2" vertex="1">
                    <mxGeometry x="400" y="100" width="78" height="30" as="geometry"/>
                </mxCell>
                <mxCell id="53" value="S3" style="text;html=1;align=center;verticalAlign=middle;resizable=0;points=[];autosize=1;strokeColor=none;fillColor=none;" parent="2" vertex="1">
                    <mxGeometry x="780" y="110" width="40" height="30" as="geometry"/>
                </mxCell>
                <mxCell id="57" value="Save Trained Model" style="text;html=1;align=center;verticalAlign=middle;resizable=0;points=[];autosize=1;strokeColor=none;fillColor=none;" parent="2" vertex="1">
                    <mxGeometry x="720" y="240" width="130" height="30" as="geometry"/>
                </mxCell>
                <mxCell id="96" style="edgeStyle=none;html=1;exitX=0.5;exitY=1;exitDx=0;exitDy=0;exitPerimeter=0;startArrow=none;" parent="2" source="110" target="95" edge="1">
                    <mxGeometry relative="1" as="geometry"/>
                </mxCell>
                <mxCell id="93" value="" style="sketch=0;points=[[0,0,0],[0.25,0,0],[0.5,0,0],[0.75,0,0],[1,0,0],[0,1,0],[0.25,1,0],[0.5,1,0],[0.75,1,0],[1,1,0],[0,0.25,0],[0,0.5,0],[0,0.75,0],[1,0.25,0],[1,0.5,0],[1,0.75,0]];outlineConnect=0;fontColor=#232F3E;gradientColor=#FF4F8B;gradientDirection=north;fillColor=#BC1356;strokeColor=#ffffff;dashed=0;verticalLabelPosition=bottom;verticalAlign=top;align=center;html=1;fontSize=12;fontStyle=0;aspect=fixed;shape=mxgraph.aws4.resourceIcon;resIcon=mxgraph.aws4.eventbridge;" parent="2" vertex="1">
                    <mxGeometry x="45" y="160" width="50" height="50" as="geometry"/>
                </mxCell>
                <mxCell id="95" value="" style="sketch=0;points=[[0,0,0],[0.25,0,0],[0.5,0,0],[0.75,0,0],[1,0,0],[0,1,0],[0.25,1,0],[0.5,1,0],[0.75,1,0],[1,1,0],[0,0.25,0],[0,0.5,0],[0,0.75,0],[1,0.25,0],[1,0.5,0],[1,0.75,0]];outlineConnect=0;fontColor=#232F3E;gradientColor=#F78E04;gradientDirection=north;fillColor=#D05C17;strokeColor=#ffffff;dashed=0;verticalLabelPosition=bottom;verticalAlign=top;align=center;html=1;fontSize=12;fontStyle=0;aspect=fixed;shape=mxgraph.aws4.resourceIcon;resIcon=mxgraph.aws4.lambda;" parent="2" vertex="1">
                    <mxGeometry x="45" y="280" width="50" height="50" as="geometry"/>
                </mxCell>
                <mxCell id="104" value="" style="endArrow=classic;html=1;edgeStyle=orthogonalEdgeStyle;startArrow=none;" parent="2" source="3" target="84" edge="1">
                    <mxGeometry width="50" height="50" relative="1" as="geometry">
                        <mxPoint x="80" y="340" as="sourcePoint"/>
                        <mxPoint x="270" y="394.0588235294117" as="targetPoint"/>
                    </mxGeometry>
                </mxCell>
                <mxCell id="41" value="ECR" style="text;html=1;strokeColor=none;fillColor=none;align=center;verticalAlign=middle;whiteSpace=wrap;rounded=0;" parent="2" vertex="1">
                    <mxGeometry x="31" y="100" width="78" height="30" as="geometry"/>
                </mxCell>
                <mxCell id="109" value="" style="edgeStyle=none;html=1;exitX=0.5;exitY=1;exitDx=0;exitDy=0;exitPerimeter=0;entryX=0.5;entryY=0;entryDx=0;entryDy=0;entryPerimeter=0;endArrow=none;" parent="2" source="3" target="41" edge="1">
                    <mxGeometry relative="1" as="geometry">
                        <mxPoint x="100" y="310" as="sourcePoint"/>
                        <mxPoint x="100" y="380" as="targetPoint"/>
                    </mxGeometry>
                </mxCell>
                <mxCell id="110" value="EventBridge" style="text;html=1;strokeColor=none;fillColor=none;align=center;verticalAlign=middle;whiteSpace=wrap;rounded=0;" parent="2" vertex="1">
                    <mxGeometry x="31" y="220" width="78" height="30" as="geometry"/>
                </mxCell>
                <mxCell id="111" value="" style="edgeStyle=none;html=1;exitX=0.5;exitY=1;exitDx=0;exitDy=0;exitPerimeter=0;endArrow=none;" parent="2" source="93" target="110" edge="1">
                    <mxGeometry relative="1" as="geometry">
                        <mxPoint x="100" y="430" as="sourcePoint"/>
                        <mxPoint x="100" y="490" as="targetPoint"/>
                    </mxGeometry>
                </mxCell>
                <mxCell id="112" value="Lambda" style="text;html=1;strokeColor=none;fillColor=none;align=center;verticalAlign=middle;whiteSpace=wrap;rounded=0;" parent="2" vertex="1">
                    <mxGeometry x="31" y="330" width="78" height="30" as="geometry"/>
                </mxCell>
                <mxCell id="84" value="" style="sketch=0;outlineConnect=0;fontColor=#232F3E;gradientColor=none;fillColor=#4D27AA;strokeColor=none;dashed=0;verticalLabelPosition=bottom;verticalAlign=top;align=center;html=1;fontSize=12;fontStyle=0;aspect=fixed;pointerEvents=1;shape=mxgraph.aws4.endpoints;" parent="2" vertex="1">
                    <mxGeometry x="356" y="164" width="40" height="40" as="geometry"/>
                </mxCell>
                <mxCell id="106" style="edgeStyle=none;html=1;" parent="2" source="84" target="22" edge="1">
                    <mxGeometry relative="1" as="geometry">
                        <mxPoint x="79.99999999999977" y="110" as="sourcePoint"/>
                        <mxPoint x="79.99999999999977" y="180" as="targetPoint"/>
                    </mxGeometry>
                </mxCell>
                <mxCell id="10" value="" style="sketch=0;outlineConnect=0;fontColor=#232F3E;gradientColor=none;fillColor=#232F3D;strokeColor=none;dashed=0;verticalLabelPosition=bottom;verticalAlign=top;align=center;html=1;fontSize=12;fontStyle=0;aspect=fixed;pointerEvents=1;shape=mxgraph.aws4.user;" parent="1" vertex="1">
                    <mxGeometry x="-345" y="260" width="50" height="50" as="geometry"/>
                </mxCell>
                <mxCell id="12" value="" style="endArrow=classic;html=1;entryX=0;entryY=0.5;entryDx=0;entryDy=0;" parent="1" source="10" target="18" edge="1">
                    <mxGeometry width="50" height="50" relative="1" as="geometry">
                        <mxPoint x="-225" y="398" as="sourcePoint"/>
                        <mxPoint x="-335.0000000000002" y="290" as="targetPoint"/>
                    </mxGeometry>
                </mxCell>
                <mxCell id="23" style="edgeStyle=none;html=1;exitX=1;exitY=0.5;exitDx=0;exitDy=0;" parent="1" source="16" target="3" edge="1">
                    <mxGeometry relative="1" as="geometry"/>
                </mxCell>
                <mxCell id="16" value="" style="shape=image;verticalLabelPosition=bottom;labelBackgroundColor=default;verticalAlign=top;aspect=fixed;imageAspect=0;image=data:image/png,iVBORw0KGgoAAAANSUhEUgAAAMgAAADICAYAAACtWK6eAAAnO0lEQVR4nOyde2wb173nj1yie/4QuqPCuBnsFST21N24aMqk67QxYHl52ExSp3WbtLERX5tFlNuUcXtTOMXm2srednmIJltVm6DOxt04vO7GQug0XicbZ6+zVeoJeLjSRR3UQl3GbVysMyW1vthJ63s1CYSLg65QLUY8tGWFnHNmOEMOqfkAgRFxHoff4W/O6/eIgQ4DUbIfInwjAOAmRSMbAQBx/l8//3c1lwEAFgDgEgDgoqWTiwCA8wCANyw9d7kDXyGih+nrxE0VLbsFIrwNIqwBAG4GAPhlqBUAALV0MsUM+iozSgs+XTdijdI2A1G07CaIcBoivAMAMNiGWzIAwJSlkwIz6CvMKC224Z4RPUagBgJRMgYRvkfRyEO8p+gUJjPoYUsnzzCjZHawHRFdRiAGYhuGopE9EOHvAAA2BHEPjzBuKD+IDCVCBt8NRNGyn1M0chAAsNHva/uIxQz6uKWTJ5hRYp1uTER48c1AIEqqaoY+BQDY4dc128AFSyd7LT1X6nRDIsLJB/y4iJop3q1o5GcAgH/jx/XayHqI8ChEeP3ifKW4OF+NJvIR19BSDwJREioa+SFEeK9P7bHstzp/s1f4nsfKpdoYAGBQ0YjK90hu8HFF7JyZxzuYUXrbp+tF9ACeDYQPqf6uxdUp+8d/ytLJFN/ou+D2AoqWXQ8A2AIR1iDC21pcFLDnJrvMfOq1Fq4R0UN4MhCIkterGap7fHvbw5iTfH/iNb8nyYqWvZHvt4zaQygv7WMGfdDMp57xs10R3YlrA1EzRfttfdLDj295iZUZ9AlLz11ye1+38OHfHojwmJdehRn0ITOfejKY1kV0C64MhBvHFPeTkmWR7z081om9B74ncy9E+FH7K7g5NzKSCGkD4cOqGZc9xxlLJ/dbeu7X3prnHxAlFUUj34MIP+jmvMhI1jZSy7x8Qj7j4g1s9xr//vKJ0a8vzE6+01oT/WFxvsoWZid/CgCg3EnyQzLnxQbi2yDC5xdmJ98KvpURYUNoIPZYXs3Q0y52xk1LJ7dfPnHf8cX56p9ab6K/MKNUZQZ9rn/TaEJ2bhIbiH8eAPA/mVEKhbFHtA+hgazfefSp2ED8S5LXO2fm8daF2cnftt604Ficr/4zM+jx2ED8w7GB+GckTvkgRHgbM+ik3RO1oYkRIcFxDqJmindDhF+UvNaMmcd3dFsMhpop/juI8OOSh79YGevbGXCTIkLEumYfQJQchAgfkbxOVxqHjZlPPWFPxCUP36FminsCblJEiGg6xBo8UPmxpG+VPay6tRuNo87C7OQbEGEYG4iPiI6NDcT/LTPos/YwrT2ti+gkDYdY3GV9SuJ808zjT7nd34AoqSoa+RpEeDuf/Cv2tfiy8Iv2/KATEYDx8aWfAAB2SRx6pDLW9/U2NCmiw7yvB4EoGVu/8+j/kNjvWLR0crvbCbmaKe5TNHIyNhDfxl1VIP+o3zYWiPBX+jeN7gYA/IYZpd+5+jYtwgz6Wv+m0S8BAP5McKjds56MVrV6n/fNQRSN7JFZ0mUG/Y6l595wczM1U/whRPigxE78BkUjenx86VmIkl78qTxhDxMtnezi8eyOKBqRndhHdDHX9CDcLeO/AQA+LDjvzOUTo193s8/BV4v+g8v23dS/afQvIcK/X5id/JXLcz3BjNIfIMIsNhC/XXAoAgBMMaP0D+1oV0RnuKYHgQjfI7F5Zg+t7nczR7DnHNwXygvrIcJH4+NLRUXLtiW+3dLJkzzXliOKRsba0Z6IznFND6Jm6H8FAPwrpxOYQf/L5RP3Tbq5yfqdRw/EBuKf9dpIThwinIEIg8X5ys+D3KXn1/4Nd5l3wjbY55hRsoJqS0RnudKDKFp2k0TwE7N08pjbm/DVKj+Adk+kZuibipa9xadrNoTHqZ8SHBaDCD8QZDsiOssVA4EIp0UH1+I5PLms3+DhHCc2Kho5o2aKT0OUVHy+9hUsnRDRMTK6RXQvKw1ElI1kkRn0CY/3EaUWPcsjDV0BEd6rZuhbaqZ4t8d2OWLpuVkAwIzgsEFFy24J4v4RnWfZQPgDFoXPngwqEtDSySFLJ/bw7oyH01WI8Ivx8aW/gyjZKNl1y20THSPxconoUpYNhCc7cMTSSSHIhlh67ldmHm/lflFe3Fa223MTNVPcB1HSt6z1zKCviNrj4xwrImTUDUQTHLfADBp4pg9mlBbNfOpJM48/bvdYHi7RDxE+qGboz/migx9tYhJt2aBoWd97r4jOsw6iZL/E6tWpdqboZEbpUmWs78vMoDt4HRC33Mwn8f+Jf7+WsHQiY6zRPKQHWceL1zgOSXjeqrZj5lMvmXn8SWbQQx4m8TGI8MN82PWFVtrBDPq66BiIcCez10cEhD3EukniOFc+V37CjJJl5lPfsnQyIrO73YA4RPhUfHzpBERJV1lNVrYBAHDO6RiIsIyOEV3GOl72zAnLS8ZDv7H03Bs113o6JuNM2IAdvDfxOhQ6K/g8zNnsIzyyrkkdwJV03Djq8En8D/gkXvdwifUQ4SlFy37C7YmWTkS9l+rHfCciXHSVgdRhRqlSGeu7jRk0zRNcu6Ff0chRD0vBF0UHQIQ9DeEiwss6UWwGz7IeSsx86piZxx8DABx1eerNEOE7XZ5TlTimHbUXI9qITA8S6tLK9gS6MtZ3n6UT7Ka3UzQiE1q7EpnNy3/h8poRIadpVpMVdEUyBkvPlfgk/lHJJWFhgoaVMIPK7MdEQ6weQ8ZAugZmlJiZT33X0skNEkvCLhNZR2Wk1yI9ZSCgFr3YzwOdRMuu0Q8+QojMSo5vjn9Bo2aKX4AIH5KYVwG3q3OKlpXpcbpiOBohT4xPwp0yh4R+ZQai5CCvsHuX7DnMoG73UWT2OP7R5TUjQs46XjizKbxgZiiBKBlTM8V9aoa+5cY4ePCXbFrVOjIviig2vceIcW9Zp2whoXTjVrTsLYq2HMzk2kmwVvHKdVGfj0ocE3hpuYj2EuM7xNjhGL/jyVtiRaWovR7nRzOWTv7a/X2xaNK/YOm5UO8ZRbhnnaUTkQvFIC+13HHUTPEeezjFy6h5MY4jPAu9a2dHCW9doStKRPcRk3Qh3wIAeKUN7WkIRMm4mqFPAwCEocFNuGjpZK+l54RxHU3ub+u0WXCYF1f8iJCzTibWQyIkNxD4JPxv+CTci3EwZtBHzTz+pFfjqLUD3yLhsyZyh4/oQtbxcbOjQ6JMUge/UbTsFjVD3+QpS6GHS1BLJzeZ+dR3Ww0Xlvz+pVbuERFO6jvpoj2BDYqWvbEN7bF7jfXx8aVnFY3MeAxCuswMmq6M9aUsPedLrUSIsMix0bL0nGPEYUR3smwglk6Em2btyCCoZor38uGUKCduM+xJ+MfMfOqYX23iKU5FSbM7ErMfETzLBsIM+qoojBUiPApR0stQRwhEeGN8fGkaInxUonBPI85bOhmpjPV93e9E0opG9oqOsXQiyuEb0aVwA1muLyh6C67nxXV8ByI85tb9nGNPwsfMPP6Upef+3v92LSd5EA2vGE8uF9GDXPHmlcmcaP+QPWYtDGKHecrM44+b+dQPgnJFVzRyQGKB4GQ3FzCNcOaKgfC3oChz+wZFI/d6uA/1cE4zLjGD7qiM9d3BjFJg4cC86I/M8MqtT1dEF3GlgM7ifPVPEOH+2EDcye0ExAbin2EG/fHifNXN0uk/+zDJX2QG/c+XT4zeY+m5X7Z4LSGDBypPSfh5nTfzKdduKxHdwzUBU5ZOnpHIOaUqGvmem5tYeu41j2l66py1dLLZzKe+3Y5qToqWTcqspDGDRoU8e5xrSrAtzlcXIMLrYwNxR7cKuxexh03MKMlk+liGGfR0/6bRtGRcRR3LnoRfPjH6wMLsZFuKZUKU7F+/8+jPeO12Jy7a7QqyFFxE5+lb/Qd77M33IkQ/kEu1JAklaQ9W7lP1smS60xfNPLZ7jLa6kMfHl56V7D1GzXzKVa3GiO7jA6v/wHuRmETRzQ/1bxpNMIMel32LLs5X7R7hx7GB+D/FBuI32NdocNiMpZOMmU99f3G++p70N/EBNVP8WmwgLlOq+uylH3zkr9rQpIgO874eBNTe9FDN0F/KuHowgx4y86lvebm5omXtnuR6vpRq90Szlp7zUgOxZdRMMQkR1mXc6O35kKXnOpbQO6J9NDQQwCeqikaklmeZQR828ymv9Qs7jqJlN/HvKpwftfJCiOg+3jfEqmNPwPmE/TOii8QG4rdDhK2F2cmue6ty4zgFAPiwxOH2xHzn4nz1j21oWkQIaGogYHnOUCn2bxrdLpNkLTYQ3wYRhguzk57jLtqNPazq3zT6M0njWLR0sm1hdlJ65S6i+2k6xKoDUfKjaoaelVjVqvOCmcdfD7v7hT0hhwgflg3dZQZ90MynfhR8yyLChGMPAmorT/MQ4XOxgfguyUyMN/RvGv0SAOB/MaP0B3+a6R8QJfsHD1Se4atVUpklmUGPmPnUd4NvXUTYEBqIzcLs5NsQ4d/HBuKy5Y7/DCL8lxBhtjhf+UVYNtMULZvkm4CO7jSrmLp8YnRPWL5DRHuRMhBQM5JZeyJuzzUkT4nZk/f+TaNfAQD8xs2uu99AlFQHD1SegggfdDFUtJkx8/jOdlb4jQgXwjnIamqF+pd/aG45aenkUUvPzXo41xO2YSgaOcC9ct0Ge83wFEGhnktFBItrAwGtGQngO+WHmEFfCerNzLMu7uXBTl6iIKfMPN4ZGUeEJwMBNSO5m4fIei1cucB7lZPMoK+34qULUTIGEb4FIryNJ1gQxZA3xZ6QWzr5RlQPJAK0YiCg9qa+UdHISZ/y957jbu3neZZCe86ywAx6qf5j5SUI+nki6Y9ChDfyjIebWzDUOovMoA9FS7kRK2nJQADPlatm6N8CAHb406SOcNHSya4g5kfcqLdAhDfz/L4beGKK1ckpLvGIzovMoOeZQc8wg76xloZ5YdSqZQOpo2aKe/i8JBR5fGVhBj1k6eQRP8VVtKzds9l63NVi8m/G52wvMIO+1I5gsXYTdq18MxDAk76pGfp9AMD9fl43IOzh3IN+euUqWvZORSMPe8zQIsL+ARQsnRz0ULohdHSLVr4aSB0+N3kcANCRnL4CLtby9foX7KRo2c8pGhmXDATzA/vh5yw913UZ5btNq0AMpA5fbh0DAGwPQa1De6z6uKWTY36tUPHSb0/z79dulhNzWzoJLO2Rn3SrVoEaSB1Fy8Yhwg/wzCbtrHnI+FLykVayuzdCzRTv4c6Obnbmg+Ccmcc7mFF6u8PtaEo3a9UWA1mJomW3QIR3QIS3t7Jf4YA9OZuydHKKb0b6urIBUTKmaOSHvIhPWFhgBt1l5lOvdrohK+kFrdpuICuxexYAwBY+WfMyJl3geybneX2OUpBZ1iFK9qsZeqKFQj5BssgjO5/sdENAD2nVUQOpI5NJhBmUMIOe56WW7V7iUjtrAvIH/tMWV11s471g6eTCqpos/RDhQb72v1kmQK0ZfLOzo0bSS1p1jYHwEmrPtK9VV6lVuqKnXbrJ29gTQt3SSYEZ9DXZFEl8b+BuPmdzXSOlk0bSa1p1jYHYk+3KWN+X29Ska4iPLz0HAHCTOnWRLy8+1upSrKJlb1U08h2XPzh7CHFXJ+YkvaaVVERdSNgGUbLtqyBqprjP5QOnlk5uqIz13efHPoWl516vjPWl7Imliyz5MYjwCxAlZWq7+0YvatVNBgI9Zpb3jKJlb4QIy+bfXXZ29LP020rMfOq4mcefAgDIFuux5wEveixX4Zpe1aqbDKRenySQKlfvv9fyEuVRyQ3OBWZQLehxvz0ur4z1fZEZ9FHJU25SNPI3QbYJ9LhWXWUgPLN8W1J+Khp5QHLp2bJ0MmLmU22rclur3EsfkjnWfqkoWjaI/aYr9LJW3WYg9pf4DkTJQHfj7bkOLz8tgjGDbrf03K+CbE8j7Dew5NsRui1X4YZe16rrDMR+YakZ+myQY2tFI/tk3CKYQfea+ZTvtRFl4amIZMbZuxQt+4kg2tDrWnWjgdhoikayQVzYnuPIlF4DABTCUP7AzOP7ZFZsFI1IDTPcsBa06lYDWR5q8WVFv697p8TurGXm8bf9vrcX7MkoM+jDEoem/V4mXwtada2BgNoDOui3kSgaEQZ71dxe5AsHuaW2G13cFx9f+ml8fOmt+PjSCUXLbml2vJlPHZcolGq/7e/2s51rQauuNhBw1Uj+1o85CUTJ9RK7sCav5RgI3I/pNA9f3sbdJ3YoGqFqpvhAs/MsnQgnoYpGRDXf3bRzTWjV9QYCakZyv5qhv1C07I0tXudW0Vo+M+iRoPJ5rXDya/TDi9k/BEXLNlzB4/EuFwS3GLHv4U9b14ZWPWEgnJsUjZxVM8WnIUp68vBUNCL04WEGDWSyKekBCwEATYdJzKAF0W0gwrd4b+VV1opWvWQggL859qoZ+rv4+NJzvJyzGxyr+9biTvyPA3fpHt50os0M+pL4Xlj0HWVZE1p1Ok48KOy3R1rRiP3fZe5GfYZ3q29zD9JGOKadYQZtpdZ744a6j51oOjSw9NwFRSOm08oST7TnB2tCq24xEMoMeg4i7GUtf31t86f1CSozlgsJOaJo2Rv4Pc+LAro8PPBLzKCvCI6xXwR3OXy+Iz6+tCR5P8/0iFbxbjEQYOZT31YzRQsiTDrYjKaepzyDy5GVb1ZFI02rbXl44AuWTnaIJr3MoBcgchurFAi9oJXaVXMQM5/KMYNu5yG3naDhW07RshsUjegNhh277Ae7euXIywNnBt0mk+SOGVQ2DiJoekGrwa4yEFAzklfNPP6kC19/37D0XKXR37mbdLPl05GVD97rA3fhxxSKXL69olXXGQiouQxc4r7+biLHgkS0orP84BUtqwb8wLuBrtKqKw2kDo8c+xj39w/cUBQt2ywxt0y2vhFFI7/r9ANvF72iVVcbCKj1JszMp5408/gj9sQMAHBS8iF4odlDn5E8XzYaspUH7ketFj/oBa2srjeQOswoLVp67qXKWN+XzTwesPTlZd3DPL+SXwbTMLDfzOPHeL0KP2jpbahoxHXqm4DoBa3MrlnmdQMzSgvMKB239NxxcLVE2wa+KfTnzXyIeFx1U2qbbLn3pYex50RmHmM1Q2kricx8GiqIHvpZSyeHWrj+MmtEq4vdkheLVsb6Um1ox+8E3a5eGeu7rdmHECWvb+HBt/zAeX2WPzgdwwz6uJlP/bXXe9RZK1r1zBDLJ0R5fR29YZlR+q39dvQwhPBlkgkR/pzoGGbQM63cYwVrQqvIQFZg6aTloCMPD963FRhFIzJJ23xZ6VkrWkUGci2viQ5QNCJM5e/iwfv4wJfT1Ygqep239JxfE+Q1oVVkICuw9NwFXk7BiZtl3OglHrxp5vHNfq3d8x1qUQDTST/uBdaQVpGBrIIZ1HF1BtQElkqxueLBr/ZsvWD/3f7cc0OvaU/2epmcuMygx/y434rr9bxW0SrWKhQtO8h3cUVvmAfNfOpHLq57M98beNvSc0JXcDfEx5eKEvHhM5Wxvq1+3nctaBUZSOP2yKTwX7B0srnTJZnVTHEfT1rgiKWTuyw9J4qPcE2vaxUNsRpg6cvDAtHue7+ikRf9SoLgBTVTTEpmVD8XhHGANaBVZCAN4PljRUH9NhsbxTC0A0XLfgIifEomo7qlL5fiDoRe1yoykCaYefyIZGDWSLsfvJopblE0MuMQV7GSU5aeEy7JtkIvaxUZSBOYUTJl0+bzB/+LoBJEr0TNFO+FCOuSNcctM4+/EXSbelmryEAc4AmXZfcONioaOaNmioHUL4Eoud6eEEOEj8q6gjOD7mVGqS0BZb2qVWQgAsw8/qpEFr46/RDhQ/HxpV94yMnVEIiSUM0U96kZ+r/d1P9jBj3E89C2jV7UKlrmlaAFz9Nl13Jm0JcaZetwQtGyGyDC9hDhfg/3nTLz+IvMKAUVONaUXtMqMhBJeKoaXXKytxoGAJhhBl3O78WT112u54LiOWTtB3s9RPhmiLAmSszmwIyZx3e4/ZH5SS9pFRmIC/iDP9lioE+QdNw46vSKVtEcxAWWnnuD+wvJjrPbScHM41QYjAP0kFaRgbiEO9V92sWKTdDUa45/tRNzDid6QavIQDxgv3kqY31fZgYd7WCWR1BziyA3B11zvBW6XavIQFrAzKcmzTz+OADgaICphhph1Txk8ac7UVbZC92qVWQgLcKMklkZ67vPfjtxn6QgH/5lZlBi5vFHzHzqR2EbUonoRq2iVSyfUbTsIF+Tt7/PBh8uaT9YaunkKN8jCKSkWSfoBq0iAwkQRctuBAB8jpcru0ky66H9kM8DAM5YOqHMoK8HWSU2LIRVq8hA2ghEyX6IcJyn5bxuhZ+QPXl9FwBQaZYVfa0RFq16MrNiWOEZH893uh3dQFi0iibpEREORAYSEeFAZCAREQ5EBhIR4UBkIBERDkQGEhHhQLTM20bCsrbfDQwlkv1DCWetZgrRPkhX42V3WNHImtxJH0nXtNqaltdqa/qqVtMFQufK9PW5crSTHmoC9C86wgz6Si/5Yo2ks4NDCXzvcMJfraYL5Mhcmb4yV+4dX6ynAABOtSQuVsb6PtbGJrlG0bI3Khp5GACwK8Ce2WQGPWzp5ElmlDoZW9ESI+nsjVvTwWtVLdPDMwXy5FzZu1Yf8LdNnknw4PtmfIgZ9PuL89U/tbFNUkCUVAcPVJ6CCB/iQ4MgFz76YwNx3L9pdC9EeGFxvvLLMGrSjKFEUv3mZOWp4UR7tFKui+PEbaN7hxJ44d13Kr989x33WoXCQCDC9rBkh8Mh6xbnKyeYUfp9G5slRM0U71U0cgoAsLnNK4IwNhD/fP+m0S/Z429mlN5p4709sXuieO/WdGe0Uq6Lfz5xW02rubI7rcKyzCtTHGVLG9ohBUTJ/vj40ss8c59MWsuguEnRyFk1U9zXwTY4MpRI9j8ytfTycKLzWm1Nk7O7J9xpFQoDYQY9z/MhNYWvBHUcnhjtFwCAuzrdFk4MInywlmozGapVyaFE8vo9E+HSajiBDz4ytfTcUEJOq5AYyHI4pKg88XaIklJ5VoNC0bK38KyBogL0nSCtZujpTtbgWMlIOnvLnonwarVngp62ezfRgaFYxQK18XwWIkycjrF0ssPScy+1r1VXCThbYH1DrCcyK9rGsTXdmlbVMqVz5atazRRqWo2kr2o1lMA3Dyda0+rYfnzHXDnkmRXB1R+gqBfpyH5Ir+WbDRI+rPKk1XSBHJor05ecfrCNGElnN/D9FE9aHduPvzhXDnFu3jrx8aX/AwAYdDrG0slN7Ux1Yw9Z+JzDzVDBNoyHLT1X8uH+UNHIA7x3lZ7k8ozl32r1/m6whyx8zuFKq+kCeXim0LpWQ4kkHEmTB4YT7rSqlumh5/c31ipUBqJmit+DCH9HcJheGeu7rU1Nso32ZReTzAVm0DE3FV1lgSi5Xs3QH7pM67+rnSUQHplyp1W1TMee3++/VkOJ5Po9E+60qpbpruf3v1+rUEzS6zCD/lgiV5KmZopfaEd71EzxXhcP/IKlk81BGAeoLWRcrqXMXM5QKOVCARE+DFHSsUf2i90T7rSaLpDNQRiHzVy5dPn72/q+Wi3LazWcwIeHEu/XKlQ9CJB/Y18y8/iTQbpbQJRU1Qx9S7KrbuvEWM0Ut/CilDJtO1UZ6/tikO0ZSiTVPRPyWokmxn6ye6K4ZTghr9X3t12rVSh20ldxASK8V3DMh/o3jcaDXNEaPFB5iu/6imj7qtHC7KQ9V5uCCNtDiA8KDv/XfLf97aDa881Jea3aaRw2b56uaTWckNdqrnxVq1ANscDVssIy2cB3BbWDrGjZGyXHrxc6taRq68QMul0mfaeikfGg2jGSlteq3cZRZ6aQ+1W1LKfV1vS1WoWxB7GZhQhnRJ6esYG4BhH+zcLs5Ft+3lzN0Me5M50TC5ZObl+YnfwHP+/thoXZySpE+L3YQHyb4FAVAHCOGSUZlx5X7JmQ02q6QG5/83TntHrz9GR1KIHfU66T02quXNMqdD0IqL0dLzKDyrz1YhDhF9RM8W6/7s1LfO0SHccMOmbpuV/7dV+v8HT+VHQcd8X3lZG0nFbVMh2bKXReq+f3y2nFXfGXCaWBgNp+x2O2JUscWjeSr/lxX4jwvRIxCmeDWq3ygqWTvRLDhxEe4egbQwk5rYJarfLCdEFOKx7hGF4DYUZp0dKJPbaVGbPaRnJEzRSfatVfi0cCOmLp/r+NW8HSc7/l5QQcgQjv8fO+PBLQkelCuLSaKchpNZSoaRVaAwG1B/9rZlDRitYVIMIPqhn6c0XLbvJyP/6GFYV+nvVjh9xveI/r+GaECPvmVcvfsEKt/Ngh95vpglir4URNq1AbCKiNsY8xgz7q4pSbFI2cUTPFpyFKuvXL+ZzoAEsnh1xesy3Y8zYAgC447AZFy/pVdVao1XQhnFrNFOS0Gkln1dAbCKgZyXeZQY+4OMUecu1VM/R3aqb4Q9mxt0TMCWMG7Yg3sQyWToRDB78Cz3j2ESfYXDm8Wk0X5LTqCgMBtYf/DQDACy5PgxDhhxSNvBUfX5pWM8V9AmMRLVfOhKXMciOYQV8THQMRltnQk0GoVSf2PGSZK4u1GkrgzaGKQHPCnrRXxvr+Qs0UTftH7+ESIxBh+z+7p7hc212mF5lBTbuT4sc45mJiBhUuEQLuVTqUwEm+pm7OlWnJbQqaoURS5deAAIDZmUJOWCuD58865/TjhQi7WskaSWfXc11Wxnb8uUirallOq07B82c5ajWcwBu7xkDqmPnUt9VM8QLPIuK1/etrEYrY/sFIn8SDnRzhwUIvrnLbvzRdIDtmCrk3ZO6ze6J4gLtsX1mR25omp47tx38h8Va+IHi7S+Wf4v5VzwIARBtrDeHBTmFHqFXXDLFWYuZTz1j68hi43Wk6Hf2Z7B/V1jSZahDTMmj/3f5cdIPdE8U9wwk8vtI4ONv3TNCfiM63dHJBcIiwDTyuo+jVODiB+X75xXRBrFVXGgiordr8vZnHn+J1t9uFY1rLkTT5KwevUYV/7gjvOZqxfSSdFYWXil4aQq9W3s5WNxW7IV2qUKuuNRBQG3NbvO72iOSue0vUY8ibMZxwngCLPueZNkRDIE97PG4YTuCRVq9RjyHvdrraQOrw3uTTPJjoYgebIpofOH7O46JFbhA9k5u3G+gJAwF8lcvMpyYrY30fs3RyFwBgSsa92Q08+0hTqmU61crnHKfVHzZXpqKd6ZbT/lTLdKbVa/DsI2FHqFXPGMhKLD33SmWs7w5LJx9hBn2I75r68eZd7/ThTIH82P6n2cf8c0e471LDnqZapmSuXDKdzocIi0JsL4naMFMgP+IrPK3gqFUYGEqItepJA6lj6blLZj71ZGWs7zYzjwcsnWDuaHiU/5ArLg3neqcP7SHSsf34jmqZHlzxI1+w/58HCwl7tJlC7lfTheU5lb6iB7xYLdP08/tTPxCdL7HP4Whg/HssHNuPU7wX9oqjVmFgOCHWKnQx6Z0kPr70/5z2VphBD5r51Lfb2yp3xMeX/q9gKffFyljfTtnr8Y1CZeVwda5MrT0T9A9OWtkvhef3h1urR6bEWnXdRmHAnBfsQjuVaOg43I3GcZ9DZrNzJXw1qtGKlKNWPONhaOHeyI5aVcv0XE8PsTwgyux4g6Jl/aiEFAgQYWFkJTOo6DvKItRqJB1erYYSYq3myvRMZCArsHQi9B/iEYehhGc5cYIxg0q5u4iYLoi14hGHoYRnOXGCzZXpG5GBrIAZ9HWJoKP7O51lvhGKlr1VYvfbN2/kubJYq+EEvn8oET6tRtJyWs2VSwuRgayAe8OK3oyqopEH2tQkaRSNiFK22j2k23CBpnBvWKFWI+nwabU1LdZqulDTKjKQVVg6Efp2QYQJRMnQrPOrmeI9AIC2B3tNF8RaDScwGUqER6vdE3Ja1YO9IgNZBf8RifYKFJ5IuuPYhgoRflzi0ILfqVr5j0ioFU8k3XFsQx1OyGlVr4wbGcgqmFGy37SHJQ5N8+TWHUXNLMdsCBNUWzo56Pe958olVi3LacWTW3cUHt8i1Gq6cFWryEAaYOnkSfsf0XEQ4cNqptix4qJqpvg9AMB2iUNfCCrJ3UxBTqvhBD68e6JzWu2ekNdqZZK7sKYe7SiL81UGEV6IDcQ/Lzg0FhuIfwUAMNXuUsxqprgPIvwfJQ5llk52MqP0T0G04913qmwogReU68RaKdfVtHJbirlVdk8U9w0n5LSaLpCdc+WrWkU9SBMsnTwjGWOiKBqZUTPFZBuatQwvNCQ1ZGIGHecpgQJjpiCv1dY0mdk90T6t7J5jOCGnVbVMx3lKoCtEPUgTFuerfwIAnOE1AkUvkg/GBuJpiPB7C7OTvmzENcKekA8eqByPDcTvlzzl3OUTo1/l3yUw3n2nphWvESjUSrkunh5K4PfePB2cVvaE/JuTlePKdfJavfrE6Ff5d7lCZCAO2MMmyezpNuvs43hurTPMKP2jn21RM8V7FI38dwDAzZKnLJh5/Fm/29EMe9gkmT3dZp19HM+tdWau7G8bd08U79madqfVsf34s43aEXnzShAfX3rOTb07vsNcsHTyWKvDG0XL3so3AeXTrwCwyAx6l5lPvdrKvb3wyJQ3raYL5LHVwxu3jKSzt/JNQFdaVcv0ruf3N9YqMhAJIErG1Aw97VJ4wB++bumkwAz6Gt+pF6Jo2Y0Q4bu5b5Xr5AnMoA/xsghtZyiRjO2Z8K7VdIEU5sr0Nb5TL2Qknd04lMB3c98q11pVy/QhXhahIZGBSMLLQf/UfiYtXOYcL/Z5YVVGjX6I8CAPdtrsodb3FTppHHV42iBftOKpea7RaiiBB3mwU0taiYwDRAbiDm4kJ1rMFxUU9rDq4U4bRx1uJKHVqlqmD4uMA0STdHcszlf/yAx6PDYQ/3BsIP6ZTrdnBQvMoDvMfOq5TjekzrvvVP84V6bH/+V18Q8r14VLq2qZ7nh+v5xWUQ/iETVTvAcifFiyvHCQnDPzeEeQVWxbZfdE8Z7hRDi0OrYf71hZxVZEZCAtAFFyUM3QpyVdGPyG1TYByWPMECeD6DRDieTgnonOaVXbBCSPySTOWEk0xGqBxfnqe5ae+wnfULyhlQmjS16wdLLz8on7Xg56E9Av3n2n+t5MoabVcKK9Wk0XyM5Xn7jv5dWbgDJEPYiPKFr2Tl5NtuXUnQ1gfG/lYBiq67bKSDp7J68mG5hW0wVysNXqupGBBADfx9jDawKKkk07YT/oGUsnLzCDvuR3PEcY4PsYe3hNwJa1mi6QF+bK9KV6PEerRAYSMLwm4BaI8Ga+z7GBDy9WT1gv8eCjCjPoOWbQM8ygb4S5opXfjKRrWg0l8Ga+zyHUqlqm5+bK9Mxcmb4RREWr/x8AAP//mC6b1mgHT/IAAAAASUVORK5CYII=;shadow=1;strokeColor=#000000;" parent="1" vertex="1">
                    <mxGeometry x="-115" y="260" width="50" height="50" as="geometry"/>
                </mxCell>
                <mxCell id="21" style="edgeStyle=none;html=1;exitX=1;exitY=0.5;exitDx=0;exitDy=0;" parent="1" source="18" target="16" edge="1">
                    <mxGeometry relative="1" as="geometry"/>
                </mxCell>
                <mxCell id="18" value="" style="shape=image;verticalLabelPosition=bottom;labelBackgroundColor=default;verticalAlign=top;aspect=fixed;imageAspect=0;image=data:image/png,iVBORw0KGgoAAAANSUhEUgAAAjAAAAIwCAMAAACvL6FdAAAC/VBMVEX////+/v79/f38/Pz7+/v6+vr6+fn5+fn4+Pj39/f29vb19fX09PTz8/Py8vLx8fHw8PDw7+/v7u7u7u7t7e3s7Ozr6+vq6urp6eno6Ojn5+fm5ubm5eXl5OTk4+Pj4+Pi4uLh4eHg4ODf39/e3t7d3d3c3Nzc29vb2tra2dnZ2NjY2NjX19fW1tbV1dXU1NTT09PS0tLS0dHR0NDQz8/Pzs7Ozc3Nzc3MzMzLy8vKysrJycnIyMjIx8fHxsbGxcXFxMTEw8PDwsLCwsLBwcHAwMC/v7++vr69vb29vLy8u7u7urq6ubm5uLi4t7e3t7e2tra1tbW0tLSzs7OzsrKysbGxsLCwr6+vrq6ura2trKysq6urq6uqqqqpqampqKiop6enpqampaWlpKSko6OjoqKioaGhoKCgoKCfn5+fnp6enZ2dnJycm5ubmpqamZmZmJiYl5eXlpaWlZWVlZWVlJSUk5OTkpKSkZGRkJCQj4+Pjo6OjY2NjIyMi4uLioqKiYmJiIiIh4eHhoaGhYWFhISEg4ODgoKCgYGBgICBf3+Af39/fn5+fX19fHx8e3t7enp6eXl5eHh4d3d3dnZ3dXV2dHR1dHR0c3NzcnJycXFxcHBwb29vbm5ubW1tbGxta2tsampraWlqaWlpaGhoZ2dnZmZmZWVlZGRkY2NjYmJjYWFiYGBhX19gXl5fXV1eXV1dXFxcW1tbWlpaWVlZWFhZV1dYVlZXVVVWVFRVU1NUUlJTUlJSUVFRUFBQT09PTk5OTU1OTExNS0tMSkpLSUlKSEhJR0dIR0dHRkZGRUVFREREQ0NEQkJDQUFCQEBBPz9APj4/PT0+PDw9PDw8Ozs7Ojo6OTk6ODg5Nzc4NjY3NTU2NDQ1MzM0MjIzMTEyMTExMDAwLy8wLi4vLS0uLCwtKyssKiorKSkqKCgpJycoJiYnJiYmJSUmJCQlIyMkIiIjISEiICAhHx8gHh4fHR0eHBwdGxscGxscGhobGRkaGBgZFxcYFhYXFRUPkb7oAAAZD0lEQVR4Ae3BCZyN9f4H8M+ZzdhFJco6lSXJrSxRKSqVrVxLyla3q66rVREVKq23KEL3XnFtqVRuQpaQK6VlMuIm2UYXNZbBmBlmzjmf1/+VRv+WGXPOeb7Pc37P83zfbyillFJKKaWUUkoppZRSSimllFJKKaWUUkoppZRSSimllFJKKaWUUkoppZRSSimllFJKKaWUUkoppZRSSimllFJKKaWUUkoppZRSSimllFJKKaWUUkoppZRSSimllFJKKaWUUkopHwlUbXRFr0EjnvvHm0tWp2/auffgkfyCULjwaO6h/bu+zfh4+bxp40bd07dDsxpJUH5W7vwb7n5uzprvChih8N70f48felPLalC+Eqh7/YNTPtzFmGV/9tqoHuclQ3le+dZ/nfLpEYoo2Pj6Qx1Og/Ko5IsHz9wUorT/vTuiXUUob6nS6bnV+bRNaP0rt5wF5Q2Vbxj3ZYj22/pq/zOh3C2x9aiPCumcjWOvKwflUlVvfi2bjjv6/l/rQLlOvSEfBhkv68dcCOUi5w7/gnG27bmWASg3qDV0HY2Q+XRTKMOdMnBlmOb46qHaUMZKuHp2Pg0TWnJTKpSJao/OpJEOTGgGZZjAte8Gaa41fctAmeOUoVtpuH3P1oUyQ4OJuXSB4Nw2UPHXfkGYbvFp70SoeEr442d0lW1/SYWKl+TbNtF1vh9eGSoekgfuoCtlj6wM5bTkgTvoWtkjK0M5KaH/DrragYfKQjmm6wa63u47k6AccekaesK3PaDsV/9NesZHLaHsVfm5Y/SQ8KzaUPYJ/CmLHpM3MhXKJhevpQdt6wJlh6p/D9GbFtSHEndLFj0r76EkKFFpS+hp61tByUkcmkePC40vDyWk8Vr6wLZ2UBKShh+lL4QnVYSy7Oy19I3traEs6p9DHwmOSoSyoMoc+sxHdaFidlkmfefgzVCxSXosSD+aXhEqBvU/pk9tbQUVtS4H6VuF90BFJ2F0mH42syxUFKosoM+tqwcVsfO30Pf2d4CKUK8jVAyNCEBFIPFvVMe9XRGqVJWXURX5bz2oUtTeQPWzH1pAndSFu6l+Ibcr1Elcn0P1K6HBUCW6I0j1W88nQBUr8BRVMeamQhWjzGtUxVpzKtTvlFtCVYL/1oT6jYqrqEq0pQ7Ur5yyluokMs+G+oXTvqQ6qd2NoX5WYyNVKbKaQRWp/S1VqQ60gDoubQdVBA5fBgWgzk6qiBy5BApnfEsVoexm8L2qX1FFLKshfK7ip1RR+K4ufK3sh1RR2VIDPpayiCpKG6vBtxLnUkXt80rwq39SxeDDMvCnEVQxmQlf6hWmis1o+NAl+VSx6gffqZ9FFbNjbeEzp2yisuBAA/hKygoqS7acCj/5F5VFH6XCPx6gsmwqfKNtIZV1d8Anan5PJeBoc/hC8kdUIjJPhR+8RCVkSQK8rzeVmDHwvCZHqMSEu8DjKm2mEnTwbHjbbCpRnyfDy26hEvYUPKzOIcZs38gelzZt3LR154FPzFlfQPfLXDjunu5XXHhekxYd7/6IMQtdDs9KWMXYPYtfSLl48Jzv6Vr5y0dfUw2/8AfGbkdleNVwWtAYv9Vk6IdBus+WcVen4rcyGLuZ8KiLChi7z1Cc025fFqKbfPtYUxTnflrQG55UbhMtuB8lqDFkA13iwMvNUYIzw4xddi140SRaED4LJWs5LZ/mW31LKkr2IS1YkQDvuZZWrMFJVR26k0bLn9IUJ3UXrRgCz6m4k1YMRSmSen1BY+0bdRpKUZtW5J0Nr5lESxqgdNesoJG+u7c8SpdOK1YG4C1tw7RiKyJy+XIa57tBZRCJMbTkL/CU1G9pyUREqO1HNMr3d5VBZC6jJYfPgpc8QWu6IWKd1tMYBx8uj0glHaEl78BDGh6jNdURuYTbdtMIheNPRRQ+oDWd4R0rac1mRKX8qDzG37sNEJXRtGZHOXhFf1r0KqJU+w3G2aZrEaVraNGz8IjKP9CiPyFqV2xgVML7N3289O1/TXjq4QfvG3znn/r3vW3goHuGPPTY2H++vvA/GbsKGJWcB5IRrYpBWlPQEN4wllY1QfSSh+WydHvT5730wE3tzz8jCSdX5dxLbxz09OzVO4Ms3dyzEIOvaNFieEKjQlpUkIxY1HmXJfth1T+Hdm1UDlFLrN3uzrELtgRZou3XIyav0aqu8IKltOorxKjn9/y93E9eGdSmCixKadz76UW7+XuhF8ojNiNo1dYycL+utGw2YnXKq/ylo2te6NUgAXJOv3r4v3/gL61vjlh1oWXD4XpJm2jZCMSuw3f8yc5Zd7dIgR3q9X7xsyCPKxydjJjVo2WHToPb/ZXW9YQFlaeQu2bdngZbVer0fHqI6y+EBQkFtOxluFylLFrXCpZcci4cUbVDCizZTssKG8DdnqKAmvCHD2ndPLhajVxaV5AAf5hJAa3gZi9TwA74xNMUsBwuVreAAr6ETwylhKvgXtMoYQV84g5KWAvXahCihHfgE70oojPcagZFTINPXEsRn8Glzg5SxN/hE1dSxnVwp6mUMRk+0ZYyPoYr1SukjJfhE5dRyNVwo0kUMh4+0YZClsOFTs+nkL/DJ66klOZwn8cpZSZ8ohOlvAnXqXCAUt6BT/SilNDZcJt7KWYpfOI2ipkEl0nYSjHr4BPDKCb3FLhLV8rZA58YSzlD4S7LKSeYAH+YTTmZiXCT8ympJvxhFQX9EW7yd0q6DP6wi4JWwkUqHaGkAfCFsmFKagj3GERRT8IXmlLUWLhHBkW9B1/oQ1EHUuEWl1DWd/CF5yirH9xiCoWdBj/4gLJWwSXKH6awLvCBxBwKS4M79KO0p+EDzSjtcbjDckpbCx+4j9IyA3CDumFKC1aB9y2guPZwg4cpryc8LzWX4qbCDTZQ3kx4XifKO1gG5mtKGxwsA6+bRhvcCPM9RTvcCI9LPUgbvAHzbacdZsHjOtMOeRVguua0w8Hz4HHJS2mHXjDdU7RB4VXwvErraIPXYbpvaIM/wwdq/o/yclJhtia0wWT4QvOjlNcZZhtJeR+nwB/6U95UmO0zisuqCb8YT3FZCTDZGWGK6wjfKJNOcS1hstsobhx85NwcSnsMJnuL0taXgZ8MoLQvYLCUwxRWeBH85T0KC9eAudpS2pPwmZrZFNYP5nqCwr4uA7+5lcKmw1yfUNhV8J3AasraDWNVCVLWm/ChC4KUdR5MdSNl5daCH42nrHtgqhcp6wn4UrVDFPUOTPUlRe2rBH96mKL2BmCmyiGKug8+VX4PRTWCmTpS1O4y8Kt7KOoOmOkZinoAvlVuLyXNhJlWUdL+CvCvhylpG4yUlEtJo+BjVXIo6TSY6A+UVHAG/GwiJXWEie6kpNfga00o6TGYaColtYa/raSgxTDRVxS0ET7Xh4L2wUCphRQ0DD5X/ggF1YJ5Lqag0FnwuxkU1Bnm+TMFLYPvdaCgR2GeiRQ0CL6XfJBy3oJ5VlNOuCbUbMr5FuY5QDmfQKEX5QTLwDRnUNDDUKgcpJymME07CmoFBaylnF4wzWDKOZQIBTxFOaNhmomU828oANdQzuswzRLKGQIFoEKIYr6AabZSzmVQP9pAMQdhmKQgxQTLQf1oKuVUg1nOppx1UMcNopwWMEsHypkGddyllNMbZhlIOUOhjqtGOcNglscppzPUT7IoZjzMMo1y0qB+sopi5sEsH1BMMBHqJ9Mo5nOYZTPF7IQq8jjF/ACzHKGY1VBFBlJMOAkmKU85r0EVuZ5yzoBJ6lHOWKgiF1JOU5ikFeU8ClWkHuVcBZN0oZzBUEVOoZybYZLbKedmqCIJIYq5ByZ5kHI6QZ1wmGJGwSRPUM41UCfso5gXYJIJlHMF1Al7KGYKTDKTclpDnZBJMW/BJO9RTguoE7ZSzDKYZCXlXAJ1QibFfAyTfEo5l0OdsIti1sEkGyinPdQJWRTzDUyylXKuhTohm2J2wiR7KKcz1AlHKGYvTJJNOd2gTjhGMYdhksOU0wvqhDDF5MIkuZRzK1SRVMrJh0mOUs69UEWqU04BTBKknFFQRRpQThAmCVPOWKgiLSgnDJMEKedVqCJXU04hTJJHOW9BFelOOXkwySHKWQZV5E+Ucwgm2Uc5GVBFHqKcfTDJHsrZC1XkJcrZA5PspJxwCtRP5lLOTphkKwXVgfrJx5SzBSbZREGXQP0kk3K+hkkyKKg71HGBAsrJgEn+Q0F3Qx13OgWtgknmU9CLUMe1oqD5MMlMCloEdVw/CpoBk0ygoK1Qxz1BQRNgkjEUFEyB+tEbFDQGJnmQkhpB/WgdBT0IkwykpK5QAAK5FDQQJulFScOhANSnpJ4wSXtKmgsFoDsltYNJGlHSNigAT1FSI5ikMkVVhQIWU1JlGCWXkq6CAvZRUC7MsoWShkKhDiVtgVlWUdJbUOhJSatgljmUtC8ANZGS5sAsYynqfKivKekFmOUBirobvncGRT0As3SjqLfhe70oqhvM0pSi9gXgd5MpqinMUp6yWsLvdlBUORhmN0U9CZ9rRlG7YJoPKWojfG4URX0I00yhrDT4WzpFTYFphlPW/fC12pQ1HKbpQVkfwdfupaweME0TCkuDn6VTVhOYJukYZY2Gj51PWUeTYJwvKWt7AP71N8pKh3mmUVhb+FbiHsqaBvPcT2HT4FtdKOw+mKc9hR09HX61jMLawTynUtpI+NT5lHYqDLSbwvakwJ+mUNgumGgBpfWFL52WT2ELYKJHKC0jAD96nNIegYnaU1x3+FC1w5TWHiaqGKK0DQnwn2coLVQRRsqguN7wndNzKW0dzDSJ4jYlwm/GUtwkmKkf5Q2GzzQooLh+MNM5lHfgVPjL+5R3DgyVRXmvwFduoLwsmOp1ygtdCB9J3UZ5c2CqP9MGnyfBP56lDW6HqerRDiPhG61DtEFdGGsrbVDQDD5RbjNtsAXmmkw7ZKTAH16iHSbDXN1pi7Hwha5h2qE7zFUtRFt0hw+kHaQdQlVhsM9pi8PnwvPKrqMtPoPJRtEeX5WH102jPUbBZM1ok/mJ8LZHaJNmMFombTIRntaXNsmE2V6iXR6Eh7UroE1egtmuol3CA+BZLQ/RLu1htuRs2iXUBx7V4iDtkp0Mw82ibYK94UkXH6RtZsF0PWmfYB94UJts2qcHTFcuh/YJD4Hn3JBH++SUg/Fm0k7PB+AtdwZpoxkw3/W01Wtl4SGJz9JW18F8SXtpq/Q68IyqS2irrCS4wMu017528Ihm22mvl+EGbWiz4KOJ8ILB+bRZG7hBYAfttrouXK/6QtptewCuMIa2O9QHLndjFm03Bu5QP0z7LawLFzvzHdovXB8usZQOOHJ/IlwqYfBhOmAJ3KIHHZHRHq501To6ogfcIiWLzpjfEK7T6D0644dkuMazdEjhK7XhKmlTC+mQZ+Ee59AxxybXhmukTS2kU8LnwEVW0DnHXm0CV2j1RpDOWQ436cGIbXzlr9c2q9fwiv5PLslhjJZcG4DhknqsoaO6w00SdzAioVca4P8lXjRkLWOzeejpMFjaU3vorO2JcJX7GYnCjvittEd3MiYFczsmw0iV+n8QptPug7tUOswIzEExkvttYGz2Tb48AMOkdpubT+cdrgSXGcsIPI9iBW7ayRjtmnxdGRijWv+3jzAuxsJt6gVZunSUoOyofMbq8Nw/10H8JbR4ZFWQcRKsB9eZywh0Q0nO+4IWfDOhxxmIn4Smg9/czziaC/dpzQjsrYuSJI8J05LNU25vmgjHVb5qxPxsxllruNAKRmBzDZSoyyFalbt63K0XpsIhp1/9wMxNYcbfCrhRO0ZiSxpK1HALJQT/O/eJPhdXhn0CZ145aPyyPTTFlXCl1YzEvitQourplJP95bxx997QrAoEnXJh9wcnLvrmKI2yGu7UgREpHBZASSqtorDQbRDUp5AGugYutZaRWXomSlLhI4oK9YeoGwppnLVwq06M0MGHUlCCSp9T0iAI6x2maTrCtdIZqf82Rwmqb6WciRA3jIb5Au7VkRErfBAlODebUlYkQd4smuV6uNhKRm5uWRTvuhBlZJ8FG1T4hiZZCTdrySh8ejqKN5Iy+sEWFwdpkJZwtbcYhU1noVgJyynhXdjkaZpjLtytQSGjsL0WilXrIK07lgablM2kKQrPhctNZjQ2V0exbqd1Y2Gbm2iKyXC7GrmMxrqKKE5gNa3Krgr7fE4z5NaA641iVBYkojhNC2nRY7BRJ5phFNyv7A5GZRyK9Tdac6w67LSOJthRFh7QjdHpheKUz6QlU2GrW2mCbvCEpYxKTkMUp12YVlwAW5XZy/hbAm9oVMCopCejOC/Qgi9hsxcZdwWN4BHPMzpPoDip6xi7YbDZhYy7v8ErKu1hVIItUZy0bMasLuy2iXG2pxI84xZGZ30SitMpzBh9Ats9zTi7GR6ykNEZgmLdxxiNhO1aMb4Wwktq5zAqOWehWOMYm8tgu4RsxlNObXjKXYzODBQrYRpjkZcC+81jPA2GtySsYVRCF6BYCdMYg2VwwD2MozUJ8JjGxxiVRShewgRGbxQc0Irxc6wxPGcUo3MlSjAszGh1gwNSCxk3I+E9yemMykqUpHM2o9QATljHeElPhgc1zmdULkNJ0j5nVI4mwgmzGCf5jeFJdzMq76FESaMKGIUMOOJRxsnd8KbAEkYj3BglO+8DRmxnPziiJ+NjSQAedeZ+RmMSTqZrBiMRev+PiXBGC8bF/prwrJ6MxpHKOJlAt1UszfqHa8ExZzIuesDDpjMag1GKC8buYYkKV484F05KDDIOpsPLKmxiFDJQqsRLn/y0gL+T858XOleE076n876uAE9rkscoXIRIlGtzx4vzvthx8Ggw94etGe9PHtazUQLi4Ws6LrcJPG4Ao/AqXOVjOm4APO9VRu7YmXCTRXTaq/C+sl8xchPhJvPosPVl4QMNchixwgZwkTfprJwG8IUejNz7cJHZdFS4O3ziMUauN9xjOh31GPwi8A4jtq8GXGM6nfR2AL5RYT0jtjgBbjGdDlpfAT5Sby8jNhJuMZ3O2VsXvnJFISMVvgEuMZ2OKWgLn7mDETvSHO4wg44ZCN95khHb2xCuMINOGQMfms6I7W4IN5hJh0yHHyUvZcT2NIMLzKQzlibDlyqtY8QOtYf5ZtER6yrCp2pmMmKFd8F4s+mEzJrwrcb7GbkZFWG42XTAvkbwsYsPMXJbWsFsr9F+hy6Cr7U5wsiFxlWAyebQdkfawOfa5zMKO/sEYK7Xabf89vC9TgWMxmcdYKw3aLOCjlDoEWRUPr0hAWZ6k/YK9oAC0DfI6OwYXh0mmktbBftAHderkFEKLr61CozzFu1U2AuqyI3HGLXC/zx8cRJKU7bVX/7xCBzyDm107Aaon3U8yljkrnr25j+UQ7GqXdJ/zJsbgySnwyHzaJ/866F+4epcxiqcufqNscMG9b3xmms6XHvdH2+9+5HnZ6/cnMufzYBD/k3b5F4F9Sttc2iXGXDIfNol53Ko32ieRZvMhEPeo02ymkP9zjnbaI+ZcMhC2mPrOVDFqJ5OW8yCQxbRFunVoYpVcSnt8Bocsph2WFoRqgQps2mDOXDIUtpgVjJUiQLPUN4bcMgyynsmAHUyA45R2ptwyHJKO9YfqhRtfqCwt+CQlRT2QxuoUtXJoKy34ZBVlJVRByoCFeZR1Dw4ZDVFzasAFZGEJ8MU9C4csoaCwmMCUJHqkk05C+CQTygnuwtUFOqnU8wiOORTikmvDxWV1H9QyhI45HNK+UcqVLQG5FHGMjgknTLy+kPFoOnXFLECDsmgiK+bQsWk3CRKWAWHfEUJk8pBxapzFq1bDYdspHVZnaEsOGMRLfsYDvmali2sDmXNXfm06FM45BtalH8XlGWN19KaL+CQLbRmbWMoAQlD8mhFBhyyjVbkDUmAkpG2ghZsgEMyacGKNCgxgTsPM2ZfwyHfMWaH7wxASao1n7HaDIfsYqzm14KS1mUbY7MNDvmesdnWBcoGqaPzGYtMOCSLscgfXRbKHvXnMwb/g0P2MQbz60PZp9NWRu17OCSbUdvaGcpWKfftZ5T2wiGHGKX996VA2a3KM/mMygE4JIdRyX+mCpQTav0rxCgcgkNyGYXQv2pBOeWC9xm5I3BIPiP3/gVQTrpkMSOVD4ccZaQWt4ZyWqtFjMwxOOQYI/N+K6h4aLmQkciDQ/IYiYUtoeKlxVshlmonHLKTpQq93QIqntLGH2Ep1sIha1mK3AlpUPFWdcRuntQEOGQCT2r3iKpQJkgZsI4ncTUccjVPImNACpQxWk3NYwk2BeCQwCaWIG/aJVBmqXL3RharCxzThcXaeM8pUAa6dEYef2ciHDSRv5M/8zIoU1UcsCzEX5mSAAclTuGvhD64tRKU0WoOSefPdveFw/ru5s++fOBMKBdo/Pji7YeDh76a3jMFjkvpNWPD4WDOjiVjzoNSSimllFJKKaWUUkoppZRSSimllFJKKaWUUkoppZRSSimllFJKKaWUUkoppZRSSimllFJKKaWUUkoppZRSSimllFJKKaWUUkoppZRSSimllFJKKaWUUkoppZRSSimllFJKKaXM8n+jbnMGMwU6SgAAAABJRU5ErkJggg==;strokeColor=#000000;imageBorder=default;" parent="1" vertex="1">
                    <mxGeometry x="-225" y="260" width="50" height="50" as="geometry"/>
                </mxCell>
                <mxCell id="25" value="" style="sketch=0;outlineConnect=0;fontColor=#232F3E;gradientColor=none;fillColor=#232F3D;strokeColor=none;dashed=0;verticalLabelPosition=bottom;verticalAlign=top;align=center;html=1;fontSize=12;fontStyle=0;aspect=fixed;pointerEvents=1;shape=mxgraph.aws4.user;" parent="1" vertex="1">
                    <mxGeometry x="-340" y="850" width="50" height="50" as="geometry"/>
                </mxCell>
                <mxCell id="26" value="" style="endArrow=classic;html=1;entryX=0;entryY=0.5;entryDx=0;entryDy=0;" parent="1" source="25" target="29" edge="1">
                    <mxGeometry width="50" height="50" relative="1" as="geometry">
                        <mxPoint x="-225" y="1133" as="sourcePoint"/>
                        <mxPoint x="-335.0000000000002" y="1025" as="targetPoint"/>
                    </mxGeometry>
                </mxCell>
                <mxCell id="31" style="edgeStyle=none;html=1;exitX=1;exitY=0.5;exitDx=0;exitDy=0;entryX=0;entryY=0.5;entryDx=0;entryDy=0;" parent="1" source="27" target="30" edge="1">
                    <mxGeometry relative="1" as="geometry"/>
                </mxCell>
                <mxCell id="27" value="" style="shape=image;verticalLabelPosition=bottom;labelBackgroundColor=default;verticalAlign=top;aspect=fixed;imageAspect=0;image=data:image/png,iVBORw0KGgoAAAANSUhEUgAAAMgAAADICAYAAACtWK6eAAAnO0lEQVR4nOyde2wb173nj1yie/4QuqPCuBnsFST21N24aMqk67QxYHl52ExSp3WbtLERX5tFlNuUcXtTOMXm2srednmIJltVm6DOxt04vO7GQug0XicbZ6+zVeoJeLjSRR3UQl3GbVysMyW1vthJ63s1CYSLg65QLUY8tGWFnHNmOEMOqfkAgRFxHoff4W/O6/eIgQ4DUbIfInwjAOAmRSMbAQBx/l8//3c1lwEAFgDgEgDgoqWTiwCA8wCANyw9d7kDXyGih+nrxE0VLbsFIrwNIqwBAG4GAPhlqBUAALV0MsUM+iozSgs+XTdijdI2A1G07CaIcBoivAMAMNiGWzIAwJSlkwIz6CvMKC224Z4RPUagBgJRMgYRvkfRyEO8p+gUJjPoYUsnzzCjZHawHRFdRiAGYhuGopE9EOHvAAA2BHEPjzBuKD+IDCVCBt8NRNGyn1M0chAAsNHva/uIxQz6uKWTJ5hRYp1uTER48c1AIEqqaoY+BQDY4dc128AFSyd7LT1X6nRDIsLJB/y4iJop3q1o5GcAgH/jx/XayHqI8ChEeP3ifKW4OF+NJvIR19BSDwJREioa+SFEeK9P7bHstzp/s1f4nsfKpdoYAGBQ0YjK90hu8HFF7JyZxzuYUXrbp+tF9ACeDYQPqf6uxdUp+8d/ytLJFN/ou+D2AoqWXQ8A2AIR1iDC21pcFLDnJrvMfOq1Fq4R0UN4MhCIkterGap7fHvbw5iTfH/iNb8nyYqWvZHvt4zaQygv7WMGfdDMp57xs10R3YlrA1EzRfttfdLDj295iZUZ9AlLz11ye1+38OHfHojwmJdehRn0ITOfejKY1kV0C64MhBvHFPeTkmWR7z081om9B74ncy9E+FH7K7g5NzKSCGkD4cOqGZc9xxlLJ/dbeu7X3prnHxAlFUUj34MIP+jmvMhI1jZSy7x8Qj7j4g1s9xr//vKJ0a8vzE6+01oT/WFxvsoWZid/CgCg3EnyQzLnxQbi2yDC5xdmJ98KvpURYUNoIPZYXs3Q0y52xk1LJ7dfPnHf8cX56p9ab6K/MKNUZQZ9rn/TaEJ2bhIbiH8eAPA/mVEKhbFHtA+hgazfefSp2ED8S5LXO2fm8daF2cnftt604Ficr/4zM+jx2ED8w7GB+GckTvkgRHgbM+ik3RO1oYkRIcFxDqJmindDhF+UvNaMmcd3dFsMhpop/juI8OOSh79YGevbGXCTIkLEumYfQJQchAgfkbxOVxqHjZlPPWFPxCUP36FminsCblJEiGg6xBo8UPmxpG+VPay6tRuNo87C7OQbEGEYG4iPiI6NDcT/LTPos/YwrT2ti+gkDYdY3GV9SuJ808zjT7nd34AoqSoa+RpEeDuf/Cv2tfiy8Iv2/KATEYDx8aWfAAB2SRx6pDLW9/U2NCmiw7yvB4EoGVu/8+j/kNjvWLR0crvbCbmaKe5TNHIyNhDfxl1VIP+o3zYWiPBX+jeN7gYA/IYZpd+5+jYtwgz6Wv+m0S8BAP5McKjds56MVrV6n/fNQRSN7JFZ0mUG/Y6l595wczM1U/whRPigxE78BkUjenx86VmIkl78qTxhDxMtnezi8eyOKBqRndhHdDHX9CDcLeO/AQA+LDjvzOUTo193s8/BV4v+g8v23dS/afQvIcK/X5id/JXLcz3BjNIfIMIsNhC/XXAoAgBMMaP0D+1oV0RnuKYHgQjfI7F5Zg+t7nczR7DnHNwXygvrIcJH4+NLRUXLtiW+3dLJkzzXliOKRsba0Z6IznFND6Jm6H8FAPwrpxOYQf/L5RP3Tbq5yfqdRw/EBuKf9dpIThwinIEIg8X5ys+D3KXn1/4Nd5l3wjbY55hRsoJqS0RnudKDKFp2k0TwE7N08pjbm/DVKj+Adk+kZuibipa9xadrNoTHqZ8SHBaDCD8QZDsiOssVA4EIp0UH1+I5PLms3+DhHCc2Kho5o2aKT0OUVHy+9hUsnRDRMTK6RXQvKw1ElI1kkRn0CY/3EaUWPcsjDV0BEd6rZuhbaqZ4t8d2OWLpuVkAwIzgsEFFy24J4v4RnWfZQPgDFoXPngwqEtDSySFLJ/bw7oyH01WI8Ivx8aW/gyjZKNl1y20THSPxconoUpYNhCc7cMTSSSHIhlh67ldmHm/lflFe3Fa223MTNVPcB1HSt6z1zKCviNrj4xwrImTUDUQTHLfADBp4pg9mlBbNfOpJM48/bvdYHi7RDxE+qGboz/migx9tYhJt2aBoWd97r4jOsw6iZL/E6tWpdqboZEbpUmWs78vMoDt4HRC33Mwn8f+Jf7+WsHQiY6zRPKQHWceL1zgOSXjeqrZj5lMvmXn8SWbQQx4m8TGI8MN82PWFVtrBDPq66BiIcCez10cEhD3EukniOFc+V37CjJJl5lPfsnQyIrO73YA4RPhUfHzpBERJV1lNVrYBAHDO6RiIsIyOEV3GOl72zAnLS8ZDv7H03Bs113o6JuNM2IAdvDfxOhQ6K/g8zNnsIzyyrkkdwJV03Djq8En8D/gkXvdwifUQ4SlFy37C7YmWTkS9l+rHfCciXHSVgdRhRqlSGeu7jRk0zRNcu6Ff0chRD0vBF0UHQIQ9DeEiwss6UWwGz7IeSsx86piZxx8DABx1eerNEOE7XZ5TlTimHbUXI9qITA8S6tLK9gS6MtZ3n6UT7Ka3UzQiE1q7EpnNy3/h8poRIadpVpMVdEUyBkvPlfgk/lHJJWFhgoaVMIPK7MdEQ6weQ8ZAugZmlJiZT33X0skNEkvCLhNZR2Wk1yI9ZSCgFr3YzwOdRMuu0Q8+QojMSo5vjn9Bo2aKX4AIH5KYVwG3q3OKlpXpcbpiOBohT4xPwp0yh4R+ZQai5CCvsHuX7DnMoG73UWT2OP7R5TUjQs46XjizKbxgZiiBKBlTM8V9aoa+5cY4ePCXbFrVOjIviig2vceIcW9Zp2whoXTjVrTsLYq2HMzk2kmwVvHKdVGfj0ocE3hpuYj2EuM7xNjhGL/jyVtiRaWovR7nRzOWTv7a/X2xaNK/YOm5UO8ZRbhnnaUTkQvFIC+13HHUTPEeezjFy6h5MY4jPAu9a2dHCW9doStKRPcRk3Qh3wIAeKUN7WkIRMm4mqFPAwCEocFNuGjpZK+l54RxHU3ub+u0WXCYF1f8iJCzTibWQyIkNxD4JPxv+CTci3EwZtBHzTz+pFfjqLUD3yLhsyZyh4/oQtbxcbOjQ6JMUge/UbTsFjVD3+QpS6GHS1BLJzeZ+dR3Ww0Xlvz+pVbuERFO6jvpoj2BDYqWvbEN7bF7jfXx8aVnFY3MeAxCuswMmq6M9aUsPedLrUSIsMix0bL0nGPEYUR3smwglk6Em2btyCCoZor38uGUKCduM+xJ+MfMfOqYX23iKU5FSbM7ErMfETzLBsIM+qoojBUiPApR0stQRwhEeGN8fGkaInxUonBPI85bOhmpjPV93e9E0opG9oqOsXQiyuEb0aVwA1muLyh6C67nxXV8ByI85tb9nGNPwsfMPP6Upef+3v92LSd5EA2vGE8uF9GDXPHmlcmcaP+QPWYtDGKHecrM44+b+dQPgnJFVzRyQGKB4GQ3FzCNcOaKgfC3oChz+wZFI/d6uA/1cE4zLjGD7qiM9d3BjFJg4cC86I/M8MqtT1dEF3GlgM7ifPVPEOH+2EDcye0ExAbin2EG/fHifNXN0uk/+zDJX2QG/c+XT4zeY+m5X7Z4LSGDBypPSfh5nTfzKdduKxHdwzUBU5ZOnpHIOaUqGvmem5tYeu41j2l66py1dLLZzKe+3Y5qToqWTcqspDGDRoU8e5xrSrAtzlcXIMLrYwNxR7cKuxexh03MKMlk+liGGfR0/6bRtGRcRR3LnoRfPjH6wMLsZFuKZUKU7F+/8+jPeO12Jy7a7QqyFFxE5+lb/Qd77M33IkQ/kEu1JAklaQ9W7lP1smS60xfNPLZ7jLa6kMfHl56V7D1GzXzKVa3GiO7jA6v/wHuRmETRzQ/1bxpNMIMel32LLs5X7R7hx7GB+D/FBuI32NdocNiMpZOMmU99f3G++p70N/EBNVP8WmwgLlOq+uylH3zkr9rQpIgO874eBNTe9FDN0F/KuHowgx4y86lvebm5omXtnuR6vpRq90Szlp7zUgOxZdRMMQkR1mXc6O35kKXnOpbQO6J9NDQQwCeqikaklmeZQR828ymv9Qs7jqJlN/HvKpwftfJCiOg+3jfEqmNPwPmE/TOii8QG4rdDhK2F2cmue6ty4zgFAPiwxOH2xHzn4nz1j21oWkQIaGogYHnOUCn2bxrdLpNkLTYQ3wYRhguzk57jLtqNPazq3zT6M0njWLR0sm1hdlJ65S6i+2k6xKoDUfKjaoaelVjVqvOCmcdfD7v7hT0hhwgflg3dZQZ90MynfhR8yyLChGMPAmorT/MQ4XOxgfguyUyMN/RvGv0SAOB/MaP0B3+a6R8QJfsHD1Se4atVUpklmUGPmPnUd4NvXUTYEBqIzcLs5NsQ4d/HBuKy5Y7/DCL8lxBhtjhf+UVYNtMULZvkm4CO7jSrmLp8YnRPWL5DRHuRMhBQM5JZeyJuzzUkT4nZk/f+TaNfAQD8xs2uu99AlFQHD1SegggfdDFUtJkx8/jOdlb4jQgXwjnIamqF+pd/aG45aenkUUvPzXo41xO2YSgaOcC9ct0Ge83wFEGhnktFBItrAwGtGQngO+WHmEFfCerNzLMu7uXBTl6iIKfMPN4ZGUeEJwMBNSO5m4fIei1cucB7lZPMoK+34qULUTIGEb4FIryNJ1gQxZA3xZ6QWzr5RlQPJAK0YiCg9qa+UdHISZ/y957jbu3neZZCe86ywAx6qf5j5SUI+nki6Y9ChDfyjIebWzDUOovMoA9FS7kRK2nJQADPlatm6N8CAHb406SOcNHSya4g5kfcqLdAhDfz/L4beGKK1ckpLvGIzovMoOeZQc8wg76xloZ5YdSqZQOpo2aKe/i8JBR5fGVhBj1k6eQRP8VVtKzds9l63NVi8m/G52wvMIO+1I5gsXYTdq18MxDAk76pGfp9AMD9fl43IOzh3IN+euUqWvZORSMPe8zQIsL+ARQsnRz0ULohdHSLVr4aSB0+N3kcANCRnL4CLtby9foX7KRo2c8pGhmXDATzA/vh5yw913UZ5btNq0AMpA5fbh0DAGwPQa1De6z6uKWTY36tUPHSb0/z79dulhNzWzoJLO2Rn3SrVoEaSB1Fy8Yhwg/wzCbtrHnI+FLykVayuzdCzRTv4c6Obnbmg+Ccmcc7mFF6u8PtaEo3a9UWA1mJomW3QIR3QIS3t7Jf4YA9OZuydHKKb0b6urIBUTKmaOSHvIhPWFhgBt1l5lOvdrohK+kFrdpuICuxexYAwBY+WfMyJl3geybneX2OUpBZ1iFK9qsZeqKFQj5BssgjO5/sdENAD2nVUQOpI5NJhBmUMIOe56WW7V7iUjtrAvIH/tMWV11s471g6eTCqpos/RDhQb72v1kmQK0ZfLOzo0bSS1p1jYHwEmrPtK9VV6lVuqKnXbrJ29gTQt3SSYEZ9DXZFEl8b+BuPmdzXSOlk0bSa1p1jYHYk+3KWN+X29Ska4iPLz0HAHCTOnWRLy8+1upSrKJlb1U08h2XPzh7CHFXJ+YkvaaVVERdSNgGUbLtqyBqprjP5QOnlk5uqIz13efHPoWl516vjPWl7Imliyz5MYjwCxAlZWq7+0YvatVNBgI9Zpb3jKJlb4QIy+bfXXZ29LP020rMfOq4mcefAgDIFuux5wEveixX4Zpe1aqbDKRenySQKlfvv9fyEuVRyQ3OBWZQLehxvz0ur4z1fZEZ9FHJU25SNPI3QbYJ9LhWXWUgPLN8W1J+Khp5QHLp2bJ0MmLmU22rclur3EsfkjnWfqkoWjaI/aYr9LJW3WYg9pf4DkTJQHfj7bkOLz8tgjGDbrf03K+CbE8j7Dew5NsRui1X4YZe16rrDMR+YakZ+myQY2tFI/tk3CKYQfea+ZTvtRFl4amIZMbZuxQt+4kg2tDrWnWjgdhoikayQVzYnuPIlF4DABTCUP7AzOP7ZFZsFI1IDTPcsBa06lYDWR5q8WVFv697p8TurGXm8bf9vrcX7MkoM+jDEoem/V4mXwtada2BgNoDOui3kSgaEQZ71dxe5AsHuaW2G13cFx9f+ml8fOmt+PjSCUXLbml2vJlPHZcolGq/7e/2s51rQauuNhBw1Uj+1o85CUTJ9RK7sCav5RgI3I/pNA9f3sbdJ3YoGqFqpvhAs/MsnQgnoYpGRDXf3bRzTWjV9QYCakZyv5qhv1C07I0tXudW0Vo+M+iRoPJ5rXDya/TDi9k/BEXLNlzB4/EuFwS3GLHv4U9b14ZWPWEgnJsUjZxVM8WnIUp68vBUNCL04WEGDWSyKekBCwEATYdJzKAF0W0gwrd4b+VV1opWvWQggL859qoZ+rv4+NJzvJyzGxyr+9biTvyPA3fpHt50os0M+pL4Xlj0HWVZE1p1Ok48KOy3R1rRiP3fZe5GfYZ3q29zD9JGOKadYQZtpdZ744a6j51oOjSw9NwFRSOm08oST7TnB2tCq24xEMoMeg4i7GUtf31t86f1CSozlgsJOaJo2Rv4Pc+LAro8PPBLzKCvCI6xXwR3OXy+Iz6+tCR5P8/0iFbxbjEQYOZT31YzRQsiTDrYjKaepzyDy5GVb1ZFI02rbXl44AuWTnaIJr3MoBcgchurFAi9oJXaVXMQM5/KMYNu5yG3naDhW07RshsUjegNhh277Ae7euXIywNnBt0mk+SOGVQ2DiJoekGrwa4yEFAzklfNPP6kC19/37D0XKXR37mbdLPl05GVD97rA3fhxxSKXL69olXXGQiouQxc4r7+biLHgkS0orP84BUtqwb8wLuBrtKqKw2kDo8c+xj39w/cUBQt2ywxt0y2vhFFI7/r9ANvF72iVVcbCKj1JszMp5408/gj9sQMAHBS8iF4odlDn5E8XzYaspUH7ketFj/oBa2srjeQOswoLVp67qXKWN+XzTwesPTlZd3DPL+SXwbTMLDfzOPHeL0KP2jpbahoxHXqm4DoBa3MrlnmdQMzSgvMKB239NxxcLVE2wa+KfTnzXyIeFx1U2qbbLn3pYex50RmHmM1Q2kricx8GiqIHvpZSyeHWrj+MmtEq4vdkheLVsb6Um1ox+8E3a5eGeu7rdmHECWvb+HBt/zAeX2WPzgdwwz6uJlP/bXXe9RZK1r1zBDLJ0R5fR29YZlR+q39dvQwhPBlkgkR/pzoGGbQM63cYwVrQqvIQFZg6aTloCMPD963FRhFIzJJ23xZ6VkrWkUGci2viQ5QNCJM5e/iwfv4wJfT1Ygqep239JxfE+Q1oVVkICuw9NwFXk7BiZtl3OglHrxp5vHNfq3d8x1qUQDTST/uBdaQVpGBrIIZ1HF1BtQElkqxueLBr/ZsvWD/3f7cc0OvaU/2epmcuMygx/y434rr9bxW0SrWKhQtO8h3cUVvmAfNfOpHLq57M98beNvSc0JXcDfEx5eKEvHhM5Wxvq1+3nctaBUZSOP2yKTwX7B0srnTJZnVTHEfT1rgiKWTuyw9J4qPcE2vaxUNsRpg6cvDAtHue7+ikRf9SoLgBTVTTEpmVD8XhHGANaBVZCAN4PljRUH9NhsbxTC0A0XLfgIifEomo7qlL5fiDoRe1yoykCaYefyIZGDWSLsfvJopblE0MuMQV7GSU5aeEy7JtkIvaxUZSBOYUTJl0+bzB/+LoBJEr0TNFO+FCOuSNcctM4+/EXSbelmryEAc4AmXZfcONioaOaNmioHUL4Eoud6eEEOEj8q6gjOD7mVGqS0BZb2qVWQgAsw8/qpEFr46/RDhQ/HxpV94yMnVEIiSUM0U96kZ+r/d1P9jBj3E89C2jV7UKlrmlaAFz9Nl13Jm0JcaZetwQtGyGyDC9hDhfg/3nTLz+IvMKAUVONaUXtMqMhBJeKoaXXKytxoGAJhhBl3O78WT112u54LiOWTtB3s9RPhmiLAmSszmwIyZx3e4/ZH5SS9pFRmIC/iDP9lioE+QdNw46vSKVtEcxAWWnnuD+wvJjrPbScHM41QYjAP0kFaRgbiEO9V92sWKTdDUa45/tRNzDid6QavIQDxgv3kqY31fZgYd7WCWR1BziyA3B11zvBW6XavIQFrAzKcmzTz+OADgaICphhph1Txk8ac7UVbZC92qVWQgLcKMklkZ67vPfjtxn6QgH/5lZlBi5vFHzHzqR2EbUonoRq2iVSyfUbTsIF+Tt7/PBh8uaT9YaunkKN8jCKSkWSfoBq0iAwkQRctuBAB8jpcru0ky66H9kM8DAM5YOqHMoK8HWSU2LIRVq8hA2ghEyX6IcJyn5bxuhZ+QPXl9FwBQaZYVfa0RFq16MrNiWOEZH893uh3dQFi0iibpEREORAYSEeFAZCAREQ5EBhIR4UBkIBERDkQGEhHhQLTM20bCsrbfDQwlkv1DCWetZgrRPkhX42V3WNHImtxJH0nXtNqaltdqa/qqVtMFQufK9PW5crSTHmoC9C86wgz6Si/5Yo2ks4NDCXzvcMJfraYL5Mhcmb4yV+4dX6ynAABOtSQuVsb6PtbGJrlG0bI3Khp5GACwK8Ce2WQGPWzp5ElmlDoZW9ESI+nsjVvTwWtVLdPDMwXy5FzZu1Yf8LdNnknw4PtmfIgZ9PuL89U/tbFNUkCUVAcPVJ6CCB/iQ4MgFz76YwNx3L9pdC9EeGFxvvLLMGrSjKFEUv3mZOWp4UR7tFKui+PEbaN7hxJ44d13Kr989x33WoXCQCDC9rBkh8Mh6xbnKyeYUfp9G5slRM0U71U0cgoAsLnNK4IwNhD/fP+m0S/Z429mlN5p4709sXuieO/WdGe0Uq6Lfz5xW02rubI7rcKyzCtTHGVLG9ohBUTJ/vj40ss8c59MWsuguEnRyFk1U9zXwTY4MpRI9j8ytfTycKLzWm1Nk7O7J9xpFQoDYQY9z/MhNYWvBHUcnhjtFwCAuzrdFk4MInywlmozGapVyaFE8vo9E+HSajiBDz4ytfTcUEJOq5AYyHI4pKg88XaIklJ5VoNC0bK38KyBogL0nSCtZujpTtbgWMlIOnvLnonwarVngp62ezfRgaFYxQK18XwWIkycjrF0ssPScy+1r1VXCThbYH1DrCcyK9rGsTXdmlbVMqVz5atazRRqWo2kr2o1lMA3Dyda0+rYfnzHXDnkmRXB1R+gqBfpyH5Ir+WbDRI+rPKk1XSBHJor05ecfrCNGElnN/D9FE9aHduPvzhXDnFu3jrx8aX/AwAYdDrG0slN7Ux1Yw9Z+JzDzVDBNoyHLT1X8uH+UNHIA7x3lZ7k8ozl32r1/m6whyx8zuFKq+kCeXim0LpWQ4kkHEmTB4YT7rSqlumh5/c31ipUBqJmit+DCH9HcJheGeu7rU1Nso32ZReTzAVm0DE3FV1lgSi5Xs3QH7pM67+rnSUQHplyp1W1TMee3++/VkOJ5Po9E+60qpbpruf3v1+rUEzS6zCD/lgiV5KmZopfaEd71EzxXhcP/IKlk81BGAeoLWRcrqXMXM5QKOVCARE+DFHSsUf2i90T7rSaLpDNQRiHzVy5dPn72/q+Wi3LazWcwIeHEu/XKlQ9CJB/Y18y8/iTQbpbQJRU1Qx9S7KrbuvEWM0Ut/CilDJtO1UZ6/tikO0ZSiTVPRPyWokmxn6ye6K4ZTghr9X3t12rVSh20ldxASK8V3DMh/o3jcaDXNEaPFB5iu/6imj7qtHC7KQ9V5uCCNtDiA8KDv/XfLf97aDa881Jea3aaRw2b56uaTWckNdqrnxVq1ANscDVssIy2cB3BbWDrGjZGyXHrxc6taRq68QMul0mfaeikfGg2jGSlteq3cZRZ6aQ+1W1LKfV1vS1WoWxB7GZhQhnRJ6esYG4BhH+zcLs5Ft+3lzN0Me5M50TC5ZObl+YnfwHP+/thoXZySpE+L3YQHyb4FAVAHCOGSUZlx5X7JmQ02q6QG5/83TntHrz9GR1KIHfU66T02quXNMqdD0IqL0dLzKDyrz1YhDhF9RM8W6/7s1LfO0SHccMOmbpuV/7dV+v8HT+VHQcd8X3lZG0nFbVMh2bKXReq+f3y2nFXfGXCaWBgNp+x2O2JUscWjeSr/lxX4jwvRIxCmeDWq3ygqWTvRLDhxEe4egbQwk5rYJarfLCdEFOKx7hGF4DYUZp0dKJPbaVGbPaRnJEzRSfatVfi0cCOmLp/r+NW8HSc7/l5QQcgQjv8fO+PBLQkelCuLSaKchpNZSoaRVaAwG1B/9rZlDRitYVIMIPqhn6c0XLbvJyP/6GFYV+nvVjh9xveI/r+GaECPvmVcvfsEKt/Ngh95vpglir4URNq1AbCKiNsY8xgz7q4pSbFI2cUTPFpyFKuvXL+ZzoAEsnh1xesy3Y8zYAgC447AZFy/pVdVao1XQhnFrNFOS0Gkln1dAbCKgZyXeZQY+4OMUecu1VM/R3aqb4Q9mxt0TMCWMG7Yg3sQyWToRDB78Cz3j2ESfYXDm8Wk0X5LTqCgMBtYf/DQDACy5PgxDhhxSNvBUfX5pWM8V9AmMRLVfOhKXMciOYQV8THQMRltnQk0GoVSf2PGSZK4u1GkrgzaGKQHPCnrRXxvr+Qs0UTftH7+ESIxBh+z+7p7hc212mF5lBTbuT4sc45mJiBhUuEQLuVTqUwEm+pm7OlWnJbQqaoURS5deAAIDZmUJOWCuD58865/TjhQi7WskaSWfXc11Wxnb8uUirallOq07B82c5ajWcwBu7xkDqmPnUt9VM8QLPIuK1/etrEYrY/sFIn8SDnRzhwUIvrnLbvzRdIDtmCrk3ZO6ze6J4gLtsX1mR25omp47tx38h8Va+IHi7S+Wf4v5VzwIARBtrDeHBTmFHqFXXDLFWYuZTz1j68hi43Wk6Hf2Z7B/V1jSZahDTMmj/3f5cdIPdE8U9wwk8vtI4ONv3TNCfiM63dHJBcIiwDTyuo+jVODiB+X75xXRBrFVXGgiordr8vZnHn+J1t9uFY1rLkTT5KwevUYV/7gjvOZqxfSSdFYWXil4aQq9W3s5WNxW7IV2qUKuuNRBQG3NbvO72iOSue0vUY8ibMZxwngCLPueZNkRDIE97PG4YTuCRVq9RjyHvdrraQOrw3uTTPJjoYgebIpofOH7O46JFbhA9k5u3G+gJAwF8lcvMpyYrY30fs3RyFwBgSsa92Q08+0hTqmU61crnHKfVHzZXpqKd6ZbT/lTLdKbVa/DsI2FHqFXPGMhKLD33SmWs7w5LJx9hBn2I75r68eZd7/ThTIH82P6n2cf8c0e471LDnqZapmSuXDKdzocIi0JsL4naMFMgP+IrPK3gqFUYGEqItepJA6lj6blLZj71ZGWs7zYzjwcsnWDuaHiU/5ArLg3neqcP7SHSsf34jmqZHlzxI1+w/58HCwl7tJlC7lfTheU5lb6iB7xYLdP08/tTPxCdL7HP4Whg/HssHNuPU7wX9oqjVmFgOCHWKnQx6Z0kPr70/5z2VphBD5r51Lfb2yp3xMeX/q9gKffFyljfTtnr8Y1CZeVwda5MrT0T9A9OWtkvhef3h1urR6bEWnXdRmHAnBfsQjuVaOg43I3GcZ9DZrNzJXw1qtGKlKNWPONhaOHeyI5aVcv0XE8PsTwgyux4g6Jl/aiEFAgQYWFkJTOo6DvKItRqJB1erYYSYq3myvRMZCArsHQi9B/iEYehhGc5cYIxg0q5u4iYLoi14hGHoYRnOXGCzZXpG5GBrIAZ9HWJoKP7O51lvhGKlr1VYvfbN2/kubJYq+EEvn8oET6tRtJyWs2VSwuRgayAe8OK3oyqopEH2tQkaRSNiFK22j2k23CBpnBvWKFWI+nwabU1LdZqulDTKjKQVVg6Efp2QYQJRMnQrPOrmeI9AIC2B3tNF8RaDScwGUqER6vdE3Ja1YO9IgNZBf8RifYKFJ5IuuPYhgoRflzi0ILfqVr5j0ioFU8k3XFsQx1OyGlVr4wbGcgqmFGy37SHJQ5N8+TWHUXNLMdsCBNUWzo56Pe958olVi3LacWTW3cUHt8i1Gq6cFWryEAaYOnkSfsf0XEQ4cNqptix4qJqpvg9AMB2iUNfCCrJ3UxBTqvhBD68e6JzWu2ekNdqZZK7sKYe7SiL81UGEV6IDcQ/Lzg0FhuIfwUAMNXuUsxqprgPIvwfJQ5llk52MqP0T0G04913qmwogReU68RaKdfVtHJbirlVdk8U9w0n5LSaLpCdc+WrWkU9SBMsnTwjGWOiKBqZUTPFZBuatQwvNCQ1ZGIGHecpgQJjpiCv1dY0mdk90T6t7J5jOCGnVbVMx3lKoCtEPUgTFuerfwIAnOE1AkUvkg/GBuJpiPB7C7OTvmzENcKekA8eqByPDcTvlzzl3OUTo1/l3yUw3n2nphWvESjUSrkunh5K4PfePB2cVvaE/JuTlePKdfJavfrE6Ff5d7lCZCAO2MMmyezpNuvs43hurTPMKP2jn21RM8V7FI38dwDAzZKnLJh5/Fm/29EMe9gkmT3dZp19HM+tdWau7G8bd08U79madqfVsf34s43aEXnzShAfX3rOTb07vsNcsHTyWKvDG0XL3so3AeXTrwCwyAx6l5lPvdrKvb3wyJQ3raYL5LHVwxu3jKSzt/JNQFdaVcv0ruf3N9YqMhAJIErG1Aw97VJ4wB++bumkwAz6Gt+pF6Jo2Y0Q4bu5b5Xr5AnMoA/xsghtZyiRjO2Z8K7VdIEU5sr0Nb5TL2Qknd04lMB3c98q11pVy/QhXhahIZGBSMLLQf/UfiYtXOYcL/Z5YVVGjX6I8CAPdtrsodb3FTppHHV42iBftOKpea7RaiiBB3mwU0taiYwDRAbiDm4kJ1rMFxUU9rDq4U4bRx1uJKHVqlqmD4uMA0STdHcszlf/yAx6PDYQ/3BsIP6ZTrdnBQvMoDvMfOq5TjekzrvvVP84V6bH/+V18Q8r14VLq2qZ7nh+v5xWUQ/iETVTvAcifFiyvHCQnDPzeEeQVWxbZfdE8Z7hRDi0OrYf71hZxVZEZCAtAFFyUM3QpyVdGPyG1TYByWPMECeD6DRDieTgnonOaVXbBCSPySTOWEk0xGqBxfnqe5ae+wnfULyhlQmjS16wdLLz8on7Xg56E9Av3n2n+t5MoabVcKK9Wk0XyM5Xn7jv5dWbgDJEPYiPKFr2Tl5NtuXUnQ1gfG/lYBiq67bKSDp7J68mG5hW0wVysNXqupGBBADfx9jDawKKkk07YT/oGUsnLzCDvuR3PEcY4PsYe3hNwJa1mi6QF+bK9KV6PEerRAYSMLwm4BaI8Ga+z7GBDy9WT1gv8eCjCjPoOWbQM8ygb4S5opXfjKRrWg0l8Ga+zyHUqlqm5+bK9Mxcmb4RREWr/x8AAP//mC6b1mgHT/IAAAAASUVORK5CYII=;shadow=1;strokeColor=#000000;" parent="1" vertex="1">
                    <mxGeometry x="-110" y="850" width="50" height="50" as="geometry"/>
                </mxCell>
                <mxCell id="28" style="edgeStyle=none;html=1;exitX=1;exitY=0.5;exitDx=0;exitDy=0;" parent="1" source="29" target="27" edge="1">
                    <mxGeometry relative="1" as="geometry"/>
                </mxCell>
                <mxCell id="29" value="" style="shape=image;verticalLabelPosition=bottom;labelBackgroundColor=default;verticalAlign=top;aspect=fixed;imageAspect=0;image=data:image/png,iVBORw0KGgoAAAANSUhEUgAAAjAAAAIwCAMAAACvL6FdAAAC/VBMVEX////+/v79/f38/Pz7+/v6+vr6+fn5+fn4+Pj39/f29vb19fX09PTz8/Py8vLx8fHw8PDw7+/v7u7u7u7t7e3s7Ozr6+vq6urp6eno6Ojn5+fm5ubm5eXl5OTk4+Pj4+Pi4uLh4eHg4ODf39/e3t7d3d3c3Nzc29vb2tra2dnZ2NjY2NjX19fW1tbV1dXU1NTT09PS0tLS0dHR0NDQz8/Pzs7Ozc3Nzc3MzMzLy8vKysrJycnIyMjIx8fHxsbGxcXFxMTEw8PDwsLCwsLBwcHAwMC/v7++vr69vb29vLy8u7u7urq6ubm5uLi4t7e3t7e2tra1tbW0tLSzs7OzsrKysbGxsLCwr6+vrq6ura2trKysq6urq6uqqqqpqampqKiop6enpqampaWlpKSko6OjoqKioaGhoKCgoKCfn5+fnp6enZ2dnJycm5ubmpqamZmZmJiYl5eXlpaWlZWVlZWVlJSUk5OTkpKSkZGRkJCQj4+Pjo6OjY2NjIyMi4uLioqKiYmJiIiIh4eHhoaGhYWFhISEg4ODgoKCgYGBgICBf3+Af39/fn5+fX19fHx8e3t7enp6eXl5eHh4d3d3dnZ3dXV2dHR1dHR0c3NzcnJycXFxcHBwb29vbm5ubW1tbGxta2tsampraWlqaWlpaGhoZ2dnZmZmZWVlZGRkY2NjYmJjYWFiYGBhX19gXl5fXV1eXV1dXFxcW1tbWlpaWVlZWFhZV1dYVlZXVVVWVFRVU1NUUlJTUlJSUVFRUFBQT09PTk5OTU1OTExNS0tMSkpLSUlKSEhJR0dIR0dHRkZGRUVFREREQ0NEQkJDQUFCQEBBPz9APj4/PT0+PDw9PDw8Ozs7Ojo6OTk6ODg5Nzc4NjY3NTU2NDQ1MzM0MjIzMTEyMTExMDAwLy8wLi4vLS0uLCwtKyssKiorKSkqKCgpJycoJiYnJiYmJSUmJCQlIyMkIiIjISEiICAhHx8gHh4fHR0eHBwdGxscGxscGhobGRkaGBgZFxcYFhYXFRUPkb7oAAAZD0lEQVR4Ae3BCZyN9f4H8M+ZzdhFJco6lSXJrSxRKSqVrVxLyla3q66rVREVKq23KEL3XnFtqVRuQpaQK6VlMuIm2UYXNZbBmBlmzjmf1/+VRv+WGXPOeb7Pc37P83zfbyillFJKKaWUUkoppZRSSimllFJKKaWUUkoppZRSSimllFJKKaWUUkoppZRSSimllFJKKaWUUkoppZRSSimllFJKKaWUUkoppZRSSimllFJKKaWUUkoppZRSSimllFJKKaWUUkopHwlUbXRFr0EjnvvHm0tWp2/auffgkfyCULjwaO6h/bu+zfh4+bxp40bd07dDsxpJUH5W7vwb7n5uzprvChih8N70f48felPLalC+Eqh7/YNTPtzFmGV/9tqoHuclQ3le+dZ/nfLpEYoo2Pj6Qx1Og/Ko5IsHz9wUorT/vTuiXUUob6nS6bnV+bRNaP0rt5wF5Q2Vbxj3ZYj22/pq/zOh3C2x9aiPCumcjWOvKwflUlVvfi2bjjv6/l/rQLlOvSEfBhkv68dcCOUi5w7/gnG27bmWASg3qDV0HY2Q+XRTKMOdMnBlmOb46qHaUMZKuHp2Pg0TWnJTKpSJao/OpJEOTGgGZZjAte8Gaa41fctAmeOUoVtpuH3P1oUyQ4OJuXSB4Nw2UPHXfkGYbvFp70SoeEr442d0lW1/SYWKl+TbNtF1vh9eGSoekgfuoCtlj6wM5bTkgTvoWtkjK0M5KaH/DrragYfKQjmm6wa63u47k6AccekaesK3PaDsV/9NesZHLaHsVfm5Y/SQ8KzaUPYJ/CmLHpM3MhXKJhevpQdt6wJlh6p/D9GbFtSHEndLFj0r76EkKFFpS+hp61tByUkcmkePC40vDyWk8Vr6wLZ2UBKShh+lL4QnVYSy7Oy19I3traEs6p9DHwmOSoSyoMoc+sxHdaFidlkmfefgzVCxSXosSD+aXhEqBvU/pk9tbQUVtS4H6VuF90BFJ2F0mH42syxUFKosoM+tqwcVsfO30Pf2d4CKUK8jVAyNCEBFIPFvVMe9XRGqVJWXURX5bz2oUtTeQPWzH1pAndSFu6l+Ibcr1Elcn0P1K6HBUCW6I0j1W88nQBUr8BRVMeamQhWjzGtUxVpzKtTvlFtCVYL/1oT6jYqrqEq0pQ7Ur5yyluokMs+G+oXTvqQ6qd2NoX5WYyNVKbKaQRWp/S1VqQ60gDoubQdVBA5fBgWgzk6qiBy5BApnfEsVoexm8L2qX1FFLKshfK7ip1RR+K4ufK3sh1RR2VIDPpayiCpKG6vBtxLnUkXt80rwq39SxeDDMvCnEVQxmQlf6hWmis1o+NAl+VSx6gffqZ9FFbNjbeEzp2yisuBAA/hKygoqS7acCj/5F5VFH6XCPx6gsmwqfKNtIZV1d8Anan5PJeBoc/hC8kdUIjJPhR+8RCVkSQK8rzeVmDHwvCZHqMSEu8DjKm2mEnTwbHjbbCpRnyfDy26hEvYUPKzOIcZs38gelzZt3LR154FPzFlfQPfLXDjunu5XXHhekxYd7/6IMQtdDs9KWMXYPYtfSLl48Jzv6Vr5y0dfUw2/8AfGbkdleNVwWtAYv9Vk6IdBus+WcVen4rcyGLuZ8KiLChi7z1Cc025fFqKbfPtYUxTnflrQG55UbhMtuB8lqDFkA13iwMvNUYIzw4xddi140SRaED4LJWs5LZ/mW31LKkr2IS1YkQDvuZZWrMFJVR26k0bLn9IUJ3UXrRgCz6m4k1YMRSmSen1BY+0bdRpKUZtW5J0Nr5lESxqgdNesoJG+u7c8SpdOK1YG4C1tw7RiKyJy+XIa57tBZRCJMbTkL/CU1G9pyUREqO1HNMr3d5VBZC6jJYfPgpc8QWu6IWKd1tMYBx8uj0glHaEl78BDGh6jNdURuYTbdtMIheNPRRQ+oDWd4R0rac1mRKX8qDzG37sNEJXRtGZHOXhFf1r0KqJU+w3G2aZrEaVraNGz8IjKP9CiPyFqV2xgVML7N3289O1/TXjq4QfvG3znn/r3vW3goHuGPPTY2H++vvA/GbsKGJWcB5IRrYpBWlPQEN4wllY1QfSSh+WydHvT5730wE3tzz8jCSdX5dxLbxz09OzVO4Ms3dyzEIOvaNFieEKjQlpUkIxY1HmXJfth1T+Hdm1UDlFLrN3uzrELtgRZou3XIyav0aqu8IKltOorxKjn9/y93E9eGdSmCixKadz76UW7+XuhF8ojNiNo1dYycL+utGw2YnXKq/ylo2te6NUgAXJOv3r4v3/gL61vjlh1oWXD4XpJm2jZCMSuw3f8yc5Zd7dIgR3q9X7xsyCPKxydjJjVo2WHToPb/ZXW9YQFlaeQu2bdngZbVer0fHqI6y+EBQkFtOxluFylLFrXCpZcci4cUbVDCizZTssKG8DdnqKAmvCHD2ndPLhajVxaV5AAf5hJAa3gZi9TwA74xNMUsBwuVreAAr6ETwylhKvgXtMoYQV84g5KWAvXahCihHfgE70oojPcagZFTINPXEsRn8Glzg5SxN/hE1dSxnVwp6mUMRk+0ZYyPoYr1SukjJfhE5dRyNVwo0kUMh4+0YZClsOFTs+nkL/DJ66klOZwn8cpZSZ8ohOlvAnXqXCAUt6BT/SilNDZcJt7KWYpfOI2ipkEl0nYSjHr4BPDKCb3FLhLV8rZA58YSzlD4S7LKSeYAH+YTTmZiXCT8ympJvxhFQX9EW7yd0q6DP6wi4JWwkUqHaGkAfCFsmFKagj3GERRT8IXmlLUWLhHBkW9B1/oQ1EHUuEWl1DWd/CF5yirH9xiCoWdBj/4gLJWwSXKH6awLvCBxBwKS4M79KO0p+EDzSjtcbjDckpbCx+4j9IyA3CDumFKC1aB9y2guPZwg4cpryc8LzWX4qbCDTZQ3kx4XifKO1gG5mtKGxwsA6+bRhvcCPM9RTvcCI9LPUgbvAHzbacdZsHjOtMOeRVguua0w8Hz4HHJS2mHXjDdU7RB4VXwvErraIPXYbpvaIM/wwdq/o/yclJhtia0wWT4QvOjlNcZZhtJeR+nwB/6U95UmO0zisuqCb8YT3FZCTDZGWGK6wjfKJNOcS1hstsobhx85NwcSnsMJnuL0taXgZ8MoLQvYLCUwxRWeBH85T0KC9eAudpS2pPwmZrZFNYP5nqCwr4uA7+5lcKmw1yfUNhV8J3AasraDWNVCVLWm/ChC4KUdR5MdSNl5daCH42nrHtgqhcp6wn4UrVDFPUOTPUlRe2rBH96mKL2BmCmyiGKug8+VX4PRTWCmTpS1O4y8Kt7KOoOmOkZinoAvlVuLyXNhJlWUdL+CvCvhylpG4yUlEtJo+BjVXIo6TSY6A+UVHAG/GwiJXWEie6kpNfga00o6TGYaColtYa/raSgxTDRVxS0ET7Xh4L2wUCphRQ0DD5X/ggF1YJ5Lqag0FnwuxkU1Bnm+TMFLYPvdaCgR2GeiRQ0CL6XfJBy3oJ5VlNOuCbUbMr5FuY5QDmfQKEX5QTLwDRnUNDDUKgcpJymME07CmoFBaylnF4wzWDKOZQIBTxFOaNhmomU828oANdQzuswzRLKGQIFoEKIYr6AabZSzmVQP9pAMQdhmKQgxQTLQf1oKuVUg1nOppx1UMcNopwWMEsHypkGddyllNMbZhlIOUOhjqtGOcNglscppzPUT7IoZjzMMo1y0qB+sopi5sEsH1BMMBHqJ9Mo5nOYZTPF7IQq8jjF/ACzHKGY1VBFBlJMOAkmKU85r0EVuZ5yzoBJ6lHOWKgiF1JOU5ikFeU8ClWkHuVcBZN0oZzBUEVOoZybYZLbKedmqCIJIYq5ByZ5kHI6QZ1wmGJGwSRPUM41UCfso5gXYJIJlHMF1Al7KGYKTDKTclpDnZBJMW/BJO9RTguoE7ZSzDKYZCXlXAJ1QibFfAyTfEo5l0OdsIti1sEkGyinPdQJWRTzDUyylXKuhTohm2J2wiR7KKcz1AlHKGYvTJJNOd2gTjhGMYdhksOU0wvqhDDF5MIkuZRzK1SRVMrJh0mOUs69UEWqU04BTBKknFFQRRpQThAmCVPOWKgiLSgnDJMEKedVqCJXU04hTJJHOW9BFelOOXkwySHKWQZV5E+Ucwgm2Uc5GVBFHqKcfTDJHsrZC1XkJcrZA5PspJxwCtRP5lLOTphkKwXVgfrJx5SzBSbZREGXQP0kk3K+hkkyKKg71HGBAsrJgEn+Q0F3Qx13OgWtgknmU9CLUMe1oqD5MMlMCloEdVw/CpoBk0ygoK1Qxz1BQRNgkjEUFEyB+tEbFDQGJnmQkhpB/WgdBT0IkwykpK5QAAK5FDQQJulFScOhANSnpJ4wSXtKmgsFoDsltYNJGlHSNigAT1FSI5ikMkVVhQIWU1JlGCWXkq6CAvZRUC7MsoWShkKhDiVtgVlWUdJbUOhJSatgljmUtC8ANZGS5sAsYynqfKivKekFmOUBirobvncGRT0As3SjqLfhe70oqhvM0pSi9gXgd5MpqinMUp6yWsLvdlBUORhmN0U9CZ9rRlG7YJoPKWojfG4URX0I00yhrDT4WzpFTYFphlPW/fC12pQ1HKbpQVkfwdfupaweME0TCkuDn6VTVhOYJukYZY2Gj51PWUeTYJwvKWt7AP71N8pKh3mmUVhb+FbiHsqaBvPcT2HT4FtdKOw+mKc9hR09HX61jMLawTynUtpI+NT5lHYqDLSbwvakwJ+mUNgumGgBpfWFL52WT2ELYKJHKC0jAD96nNIegYnaU1x3+FC1w5TWHiaqGKK0DQnwn2coLVQRRsqguN7wndNzKW0dzDSJ4jYlwm/GUtwkmKkf5Q2GzzQooLh+MNM5lHfgVPjL+5R3DgyVRXmvwFduoLwsmOp1ygtdCB9J3UZ5c2CqP9MGnyfBP56lDW6HqerRDiPhG61DtEFdGGsrbVDQDD5RbjNtsAXmmkw7ZKTAH16iHSbDXN1pi7Hwha5h2qE7zFUtRFt0hw+kHaQdQlVhsM9pi8PnwvPKrqMtPoPJRtEeX5WH102jPUbBZM1ok/mJ8LZHaJNmMFombTIRntaXNsmE2V6iXR6Eh7UroE1egtmuol3CA+BZLQ/RLu1htuRs2iXUBx7V4iDtkp0Mw82ibYK94UkXH6RtZsF0PWmfYB94UJts2qcHTFcuh/YJD4Hn3JBH++SUg/Fm0k7PB+AtdwZpoxkw3/W01Wtl4SGJz9JW18F8SXtpq/Q68IyqS2irrCS4wMu017528Ihm22mvl+EGbWiz4KOJ8ILB+bRZG7hBYAfttrouXK/6QtptewCuMIa2O9QHLndjFm03Bu5QP0z7LawLFzvzHdovXB8usZQOOHJ/IlwqYfBhOmAJ3KIHHZHRHq501To6ogfcIiWLzpjfEK7T6D0644dkuMazdEjhK7XhKmlTC+mQZ+Ee59AxxybXhmukTS2kU8LnwEVW0DnHXm0CV2j1RpDOWQ436cGIbXzlr9c2q9fwiv5PLslhjJZcG4DhknqsoaO6w00SdzAioVca4P8lXjRkLWOzeejpMFjaU3vorO2JcJX7GYnCjvittEd3MiYFczsmw0iV+n8QptPug7tUOswIzEExkvttYGz2Tb48AMOkdpubT+cdrgSXGcsIPI9iBW7ayRjtmnxdGRijWv+3jzAuxsJt6gVZunSUoOyofMbq8Nw/10H8JbR4ZFWQcRKsB9eZywh0Q0nO+4IWfDOhxxmIn4Smg9/czziaC/dpzQjsrYuSJI8J05LNU25vmgjHVb5qxPxsxllruNAKRmBzDZSoyyFalbt63K0XpsIhp1/9wMxNYcbfCrhRO0ZiSxpK1HALJQT/O/eJPhdXhn0CZ145aPyyPTTFlXCl1YzEvitQourplJP95bxx997QrAoEnXJh9wcnLvrmKI2yGu7UgREpHBZASSqtorDQbRDUp5AGugYutZaRWXomSlLhI4oK9YeoGwppnLVwq06M0MGHUlCCSp9T0iAI6x2maTrCtdIZqf82Rwmqb6WciRA3jIb5Au7VkRErfBAlODebUlYkQd4smuV6uNhKRm5uWRTvuhBlZJ8FG1T4hiZZCTdrySh8ejqKN5Iy+sEWFwdpkJZwtbcYhU1noVgJyynhXdjkaZpjLtytQSGjsL0WilXrIK07lgablM2kKQrPhctNZjQ2V0exbqd1Y2Gbm2iKyXC7GrmMxrqKKE5gNa3Krgr7fE4z5NaA641iVBYkojhNC2nRY7BRJ5phFNyv7A5GZRyK9Tdac6w67LSOJthRFh7QjdHpheKUz6QlU2GrW2mCbvCEpYxKTkMUp12YVlwAW5XZy/hbAm9oVMCopCejOC/Qgi9hsxcZdwWN4BHPMzpPoDip6xi7YbDZhYy7v8ErKu1hVIItUZy0bMasLuy2iXG2pxI84xZGZ30SitMpzBh9Ats9zTi7GR6ykNEZgmLdxxiNhO1aMb4Wwktq5zAqOWehWOMYm8tgu4RsxlNObXjKXYzODBQrYRpjkZcC+81jPA2GtySsYVRCF6BYCdMYg2VwwD2MozUJ8JjGxxiVRShewgRGbxQc0Irxc6wxPGcUo3MlSjAszGh1gwNSCxk3I+E9yemMykqUpHM2o9QATljHeElPhgc1zmdULkNJ0j5nVI4mwgmzGCf5jeFJdzMq76FESaMKGIUMOOJRxsnd8KbAEkYj3BglO+8DRmxnPziiJ+NjSQAedeZ+RmMSTqZrBiMRev+PiXBGC8bF/prwrJ6MxpHKOJlAt1UszfqHa8ExZzIuesDDpjMag1GKC8buYYkKV484F05KDDIOpsPLKmxiFDJQqsRLn/y0gL+T858XOleE076n876uAE9rkscoXIRIlGtzx4vzvthx8Ggw94etGe9PHtazUQLi4Ws6LrcJPG4Ao/AqXOVjOm4APO9VRu7YmXCTRXTaq/C+sl8xchPhJvPosPVl4QMNchixwgZwkTfprJwG8IUejNz7cJHZdFS4O3ziMUauN9xjOh31GPwi8A4jtq8GXGM6nfR2AL5RYT0jtjgBbjGdDlpfAT5Sby8jNhJuMZ3O2VsXvnJFISMVvgEuMZ2OKWgLn7mDETvSHO4wg44ZCN95khHb2xCuMINOGQMfms6I7W4IN5hJh0yHHyUvZcT2NIMLzKQzlibDlyqtY8QOtYf5ZtER6yrCp2pmMmKFd8F4s+mEzJrwrcb7GbkZFWG42XTAvkbwsYsPMXJbWsFsr9F+hy6Cr7U5wsiFxlWAyebQdkfawOfa5zMKO/sEYK7Xabf89vC9TgWMxmcdYKw3aLOCjlDoEWRUPr0hAWZ6k/YK9oAC0DfI6OwYXh0mmktbBftAHderkFEKLr61CozzFu1U2AuqyI3HGLXC/zx8cRJKU7bVX/7xCBzyDm107Aaon3U8yljkrnr25j+UQ7GqXdJ/zJsbgySnwyHzaJ/866F+4epcxiqcufqNscMG9b3xmms6XHvdH2+9+5HnZ6/cnMufzYBD/k3b5F4F9Sttc2iXGXDIfNol53Ko32ieRZvMhEPeo02ymkP9zjnbaI+ZcMhC2mPrOVDFqJ5OW8yCQxbRFunVoYpVcSnt8Bocsph2WFoRqgQps2mDOXDIUtpgVjJUiQLPUN4bcMgyynsmAHUyA45R2ptwyHJKO9YfqhRtfqCwt+CQlRT2QxuoUtXJoKy34ZBVlJVRByoCFeZR1Dw4ZDVFzasAFZGEJ8MU9C4csoaCwmMCUJHqkk05C+CQTygnuwtUFOqnU8wiOORTikmvDxWV1H9QyhI45HNK+UcqVLQG5FHGMjgknTLy+kPFoOnXFLECDsmgiK+bQsWk3CRKWAWHfEUJk8pBxapzFq1bDYdspHVZnaEsOGMRLfsYDvmali2sDmXNXfm06FM45BtalH8XlGWN19KaL+CQLbRmbWMoAQlD8mhFBhyyjVbkDUmAkpG2ghZsgEMyacGKNCgxgTsPM2ZfwyHfMWaH7wxASao1n7HaDIfsYqzm14KS1mUbY7MNDvmesdnWBcoGqaPzGYtMOCSLscgfXRbKHvXnMwb/g0P2MQbz60PZp9NWRu17OCSbUdvaGcpWKfftZ5T2wiGHGKX996VA2a3KM/mMygE4JIdRyX+mCpQTav0rxCgcgkNyGYXQv2pBOeWC9xm5I3BIPiP3/gVQTrpkMSOVD4ccZaQWt4ZyWqtFjMwxOOQYI/N+K6h4aLmQkciDQ/IYiYUtoeKlxVshlmonHLKTpQq93QIqntLGH2Ep1sIha1mK3AlpUPFWdcRuntQEOGQCT2r3iKpQJkgZsI4ncTUccjVPImNACpQxWk3NYwk2BeCQwCaWIG/aJVBmqXL3RharCxzThcXaeM8pUAa6dEYef2ciHDSRv5M/8zIoU1UcsCzEX5mSAAclTuGvhD64tRKU0WoOSefPdveFw/ru5s++fOBMKBdo/Pji7YeDh76a3jMFjkvpNWPD4WDOjiVjzoNSSimllFJKKaWUUkoppZRSSimllFJKKaWUUkoppZRSSimllFJKKaWUUkoppZRSSimllFJKKaWUUkoppZRSSimllFJKKaWUUkoppZRSSimllFJKKaWUUkoppZRSSimllFJKKaXM8n+jbnMGMwU6SgAAAABJRU5ErkJggg==;strokeColor=#000000;imageBorder=default;" parent="1" vertex="1">
                    <mxGeometry x="-219.99999999999997" y="850" width="50" height="50" as="geometry"/>
                </mxCell>
                <mxCell id="32" style="edgeStyle=orthogonalEdgeStyle;html=1;exitX=1;exitY=0.5;exitDx=0;exitDy=0;entryX=0.5;entryY=1;entryDx=0;entryDy=0;" parent="1" source="30" target="2" edge="1">
                    <mxGeometry relative="1" as="geometry"/>
                </mxCell>
                <mxCell id="30" value="" style="shape=image;verticalLabelPosition=bottom;labelBackgroundColor=default;verticalAlign=top;aspect=fixed;imageAspect=0;image=data:image/png,iVBORw0KGgoAAAANSUhEUgAAAccAAAIACAYAAAD3+acjAAAABGdBTUEAALGPC/xhBQAAACBjSFJNAAB6JgAAgIQAAPoAAACA6AAAdTAAAOpgAAA6mAAAF3CculE8AAAAB3RJTUUH5QEdEhMP+7ytfgAAAAZiS0dEAAAAAAAA+UO7fwAAMetJREFUeNrtnWmcZGV5t2u6Z4YZhoFhGPZF2VQWtRgGqDr3rUJUNAFBDaBJ3EUTcYtGRU1ec99EhSgaX5IARgzGNUHct4gmuCuI+wYosimL7Of/VNdsTL0funqm8VWcGmZ6uruu6/e7vrlA1TnP1XXuc57TiHZ9crgWRKs7pwEAAACNRrrWhutzUXWaYVoUzR6RBACAoY9jr+89YXpLtMcOSi+L+GQAAIA4jntveH1Vul4eVu8brgV8QgAAMOxxnHBlWP2/4TolXPtEqzuXTwoAAIY9jhPeGa7/SCvHRlV2iWZvhE8MAACGPY4T/jxMbw4rnl6251MDAADiOO7qdH0rXa8Kqx8erm349AAAYNjjOGFJ18fD9YKwsk+0uqN8igAAMOxxnPDmdF0YpqfGkSuX8HwkAAAQxw3+OEzvSC/HpBdu2AEAAOLYd1W6vhlW/0O49udTBQAA4rhBpevT4XpptLo78ukCAABxHHddun6drovCdGI0e+yyAwAAQx/HyY9+/Cxc70wvLT5pAAAgjht+RZZ0fS+sPiNc+/CJAwDAsMdx/Ybm6borXV8L1/Oj1V3MJw8AAMMexwnXpuuOdH08qnJMNHvz+QYAAGDY47h+HhmuW8J1Xno5kG8BAACI46RfkmH1r8Lqvw7XTmFlTrS6fCkAADDUcVxvuH4UVk6MquwQR64ciWaPLwcAAIY7jusjafpItDtHpXV2SC98QQAAQBzHf0XWSi9vD6sfEq5t+ZYAAGDo47jhV2T9q3A9P1wHRKvLna0AAEAc19+04/pKWnlKmPaJZo/3RwIAwNDHccI6TO8OK09IL7vyzQEAAHHs77QTrmvTdVZYbeFipx0AABj6OE5+f+Tl6fqbcDWZRwIAAHHc4D3p+nSanhdV2Zd5JAAAEMcN3himC8N1UnpZxrcKAADEcdw16fpJmM4Jqx8droV8uwAAMOxxnLCbrq+H64yoOg+NVpdLrQAAMPRxnPDOdH0hTC+KI1cti2ZvDt82AAAMexwnvCG8/nh6+dP0QiABAIA4TppH/iKsfm+4DuVbBwAA4njfeeQPwnVmtLo78+0DAABxHHdd//nIy8L0nGj2eOsHAAAMfRzXb0WXrtvD68+ml8dyJAAAAHGc9NaPdN0aVr8zXPtzRAAAAHG87y/JG8J1erTHdo6qjESzxwECAEAcse/lUZWTo9Vdml7YRAAAgDjipDtbP5Kux4TV24drhKMFAIA4oqsXVt8ZrrPCdVhUnUXR6rKRAAAAccR09cJ1dVo5LUwPjSNXzWceCQBAHHGDl0RVTkkv+6YXDiAAAOKI478i60663htWHxuunTiKAACII26YR96crgzXo6PVZacdAADiiJM2EfhOWnlFmB4Zzd48jioAAOKI45Z0fSJMp6YXdtoBACCOOGmXnZv688iTmEcCABBH3ODqdP0sXe8IK8dEq7uQIw0AgDjihkutl6XpDVF1Dolmby5HHAAAccRxbwvXJeF6cXrZjaMOAIA44oa7Wm8Mqz8eVj8pXIs4+gAAiCNumEf+PFwXRtV5ZLS6vPUDAIA4Yt9Ouq4KU8QRq3aJZo8NzQEAiCP2vSe8/kF6eT5HIwAAccQNrkvXPWH1l8O1gqMSAIA44n03EbgrXBdGq8tdrQAAxBF/y1vD9Jo4YtWy9MJNOwAAxBH7rgmvv5te/iys3iFcRBIAgDhi37Gw+qPhekxYWRKt7ghHLgAAccRxbwnX28LKYVF1FvP4BwAAccQN/iBMLw8rB6cXNjUHACCO2Hdlui5J1zPC6geFi03NAQCII05sIpCud4frhKg6y6LV5VIrAABxxL7XpevMMD0mjli9bTR7HNwAAMQR+34rTKenl8M4ugEAiCNusJuuz4TVLwzXnhzlAADEESe9ZDld/x6up0Wru5ijHQCAOOKGlyxfla53hOnoaPbmc9QDABBH7O+yk65vhCvTy8M58gEAiCNueDXWHen6Ylj94nDx5g8AAOKIky61/ipdHwkrT4lWdxFnAgAAccQNu+z8Ml3vjHZnRTR77LIDAEAcsW8J10/688i9OCsAgDgSBtwwj6zD6u+G1c8I13acHQBAHBHHvTdddbi+GFXnyGh1ecEyABBHxEmRXBmm8+OIVXtme4wXLAMAcUScMLy+J728NqxeHC5+SQIAcUScmEmG1VeG60nhWsrlVgAgjoiTHv8I1yezKu0w7RjNHpdbAYA4Iva9PUxviapzWHrZnjMJAIgjYn+nnXD9JF2vDKv35WwCAOKIOOn9kWH1P3I2AQBxRLyv53I2AQBxRCSOAEAcEYkjABBHxM0ax2h1F0ery6MfAEAckThOOtYyTKfEijWLo9nj5AOAaUc0ewvS9UfEEacyjj9L10/DdH56OZrTEACm1Y9FK80wvTVd3yKOONVx7KVrdbouD6vfHK4DOCUBYKv+WnQ9KEx/k64vpqukq0cccWvEccJ70vWFcP11tLo7cooCwJRGsdXdIVzPSNcn0nVz/21EPeKIWzuOE6/GujldHwvTidHsLeCUBYAtGsVmb5u08uh0vTdd1/avZt1nbSKOuLXjOOGqdP0iXO9OL0dx+gLAliCtPDRcb8vxrS/Hft+aRBxxusSxl6516eqM37RTnxGuvTiVAWCz/Fp07Rqml6brsnTV/fWmRxxxJsRxciQ1ftNOeU60uttxagPAJkWx1V0YVo5L1xfSdXe61m7MOkQccTrGcfI8spOuT0W786ho9uZxqgPARkWx2RuN9lgzTP/Z/2N77SDrD3HE6RzH9b8kw+t7wvVv6eXAsHo0XJz9APDbl04b4RpJL7un6+zw+q7Jd6ASR5xtcVxvWP2bcL0yXHtG1ZkbrS4rAgA0oj02Gq5l4XpeWH3zA11riCPOqDiuj6Trh2HlyWFll1ixZpTt6ACG9vLpSJh2jKpzdLiu2FxrDHHEGRnHDb8k9eFodzy9LGWZABgu0suSaHeWh+mCP3T3KXHEoYrj+K/IWunlLWH1I8LFna0As/3XomtRWH1weonw+pbNHUbiiLMijutv2rH6mnSdFq5DotXdhiUEYJZFsdWdH66HpOv5YfX307VmS60pxBFnSxzX77QTrkvTyp+Flf2i2RtlSQGY8XPF0ajK3mnlT8P1qYnNwbekxBFnWxwnvDNMF4bphPSyO8sLwIydK+4cVp4YpnPTddNUrSHEEWdrHHv9h35/ka6zw+qjw7U9Sw3AjJorttP1xnT9eEteQiWOOGxxnHBlfz/F14WVw6LVnc/SAzBt54rzwspB4Xplui5NV3drrBvEEYchjhPena7Ppumvot3Zl3kkwLSaK45Ea2z3MD0nXR9N1x1bc70gjjhMcZzwhnB9IFxPTy+8ZBlg688VF6XrxDD9e7qumQ7rBHHEYYxjrz+/+FlY/c6w+lHh4tEPgKmfK46G6/Cw+px0/eB3vXSYOCJx3Dp203V5uP4xqs7+0eqOsGQBTEEY22O7huuMdH3t/l46TByROG5d70rXV8P0kjh87Q4sXQBbbLa4bZiela4vbu25InFE4rjx3hRe/3d6OZFlDGCzzxaPDa8vTtd1W2LLN+KIxHHLPx95bVj9gXAdwpIG8IBniw8Jq89L19XpWjUT1gHiiMTx/p+PvDJcZ0aru4wlDmDAKLa6O4brtf2bbTrT/dcicUTiOMCG5v2T+rth5VnR7C1kyQP4g3PFBVGVp6brq+lSuu6daec+cUTiuHHem646vP58ejma5Q/g984VV4Trw/1NN+6dqec8cUTiOLh1WH1BuB4WVuZGqzuHJRGG+NJpI6zMDde+YfVb03XnTLp8ShyROG6JnXasnB5VZ+9od+ZHs8dKCcN06bQRrbG5UZXdw8pf9jf5nzXnN3FE4vjA/UZU5elRdXZPL3NZNmEILp2OZNXZJapyXP95xVl3XhNHJI6bb6edD6frseFaGi522oHZ92vRNSdcO4Spna73hNed2XpOE0ckjpvRsPqOcJ0VrlZUne2YR8Ismi0uCNdh4Xp9WP2b2X4uE0ckjlsikq6r0spLw/TwWL52HksrzODZ4tyw+uC08uwYf+nwUJzDxBGJ45b1krDyF+llP5ZZmHmzRe0fVk4Kqz83kx/LII5IHKflr8i6pOs9YfUJ4WKnHZj+vxbb9S5h9RP7c8XbZ8OjGcQRieM03WknXDek68xwPTZa3W1ZgmHaRbEqi8P16DSdGVZf3d9neCjPWeKIxHFqXZ2uK9L02qjKYdHsMY+E6TFXrPTIHN8H9evT8f2KxBGJ43B4T7o+E6bT0sv+LM+wFeeKDw7XC8P1yf7uNpyfxBGJ41bfr/XX6fpQWP20cC1lqYYpnCsujap+arrel+OX/NdyThJHJI7T7VLrlek6L6wcHa3uApZu2IJzxYVh8nCdk+OPZqziHCSOSBynsyVd30nTGdHuHBTN3ihLOWzGueJItDr7hdVnpOvb6ao554gjEseZ5O3h+nK6XppedmZZh80wV9w+XS8Jr/8nXbdzjhFHJI4zeR55U1j93+E6LlxcaoVNmSuORrt+Ylj9qXTdxFyROCJxnC2uSdcN4fpgVJ2DotVlQ3PY2NniQ8J1Ybqu78+1OZ+IIxLHWefKdN0YpjNi+b07sPTD/cwWtwur35Cua/tvi+H8IY5IHGe9Y+H1lenlmWQAfsc59qzw+jv9m7s4X4gjEsfh2oouXWNh9VfDtSJcc6LVpQzDeel0/B2L7boVVn82XRrGfVCJIxJH/G074fqPaI/tH1WZH80e748cjkunjag0L6w8LFznsrMNcUTiiL/bX4XpNdEa2zu9bEM+ZvWl0/nRHtszTK9M1y859okjEkf8A3e2huvydD0jrN41XGxqPrsey5gXVb1Lup4eXn+NnW2IIxJHHHCnnbD6w+E6NqzsHK0uO+3M7LniaJh2CtPjwur3s7MNcUTiiA/Mm8J1dlhpRbuzA/PIGTdXnBOtznZhaofrzP7zihzXxBGJI24mvxemvwkrzfTCTjszY644L02PCNOL0/U9jmHiiMQRt9wmApeE6Xnh2jdcXGqdnnPFOdGuHxxW/3m6Ps9D/MQRiSNOjXen68JwnRxVZ6dodbnUOn1mi0vDdUKa3s2jGcQRiSNuHa9P19lhemwcto5HP7bubHF+WH10us5K1zUcm8QRiSNufS8L09+ml+VkaqvMFpeH6VXp+kbyxgziiMQRp9cuO+n6XFj90nDtRbKmZLa4T1j9gnR9pn+pmy3fiCMSR5ym+7Xemq73h+vPo9XdnoRtgSi6dg3X09L13nTdyK9F4ojEkTjOkF120nV1us6Lqhwdzd58krYZotjqbhumP0rXO9N1Zf/uYY434ojEkTjOwEut3w7Xm9PLoeRtk2+2mZdV5xHhemN/az9xbBFHJI7EceZfar0zXV8Jq18Srl3I3QA321jZI0wvT9OX0nV7uu7lmCKOSByJ4+xxbbpuTtenw8oJ0epuS/rud664fbieGq6PpeuW/qVqjiPiiMSROM5SV6Xr12m6INqdw6LZm0sK7zNXnBdVWR5Wvztdv2auSBwRieNw2Q2vf5muM9LLrswVe3PyqJV7puuM8PoX6RrjGCGOiMRxeOeR3bD6Z+F6WriGckPztDKaVp4XVv8kx/dB5XlF4ohIHFHrcvwly1+LqrM8rcyNZm+2Xz6dE1aPhusx4fpif6ZIFIkjInHE3+vb4siV+6SV+bPy8qlrm6g6B4XV7+zPYPnOiSMiccQ/bHh9W1p5UZh2Cdf8WXL5dEG0xvZN1+vC6+t5LIM4IhJH3KSddsL0jXD9abh2jVZ3Rt7ZGq754dotrTw7rL6MX4vEEZE44uZQ4fpAWjkmrewUzd7IDJkrjvZ/+T4pXBfl+ObgfJ/EEZE44mb1V+l6Y1SllVa2n8ZzxZGsOkvD5GF6W45vDs73RxwRiSNuuUut6fpuml4WpkPCtXCazRUXRVWWp+m16fpuulbznQ13HK/ig0DiiFNona5Ph+s5YWXfrT2P7M8VD0zX89N0SboK3xE2stKf5fg19Vv5QJA44hR6U7ouTNcJWXV2nup5ZLS6I1GV3cLqk9P1wRzfP5bvBcfjGK3unKg6e6TrFen6LH81IXHEKfZHYTo7TEenlW2nYK44J49ctThdx4bpn7h6hr8zjpMuLcwL1yPT6kjXZVxvR+KIU+jqdH0tTK8L18PDNXcLzRXnpJUjwpT9dY5HM/D+47g+kla2CyuPT9Pb+YsKiSNOsXem6zPhenG0x3aLVnfOZpwt7huu03J8y7eazxoHiuP625lbnd3S9NR0vTddt/FhIXHEKfTGdH04XSdGs7fwAc4Wl4TVp6TrIzn+Kik+X9y0OE46qOamlf3T9bx0XZK8igWJI071PNLrd6WVozZhtrggXY8Nr8/vH3ts+YabJ46TLkcsTKsfnqbXpOtHOf5mcD5AJI44Fa5M17fClOE6YCNni48I01npuqJ/kyFvzcDNH8dJ88glWZVWms5O1y18gEgccYpcl6470nVpuJ53/2Gsj0/X5/vzS34t4paP4/p5ZLvsnFaOTtfHudSKxBGn0LXp+uQfOM5ew3PbOOVxvM880rVbuJ6aVv+Iv9CII3HEKfJ//8Bx9rfcRIhbLY6Tt15Kq3cJK6en13fwoRJH4ojEEYc+jpPmkfPzyJX7ZKV388ESR+KIxBGJ40QgD1vXiHZnNKrO8nR9tb/7BHeJEUfiiMQRhzeOv/34R7ienlb/tH/TDpEkjsQRiSMOdxwnXW7dLUz/kF7/gjtbiSOfExJHJI4bHv+Ym63OYWm6IMe3hWKzX+KISBxxuOM46fGPbdPKien6VI6/O42ddogjInHE4Y7jpHnkrmn1S9L15f4uFswjiSMiccThjuOkeeShaXpTui5PV4cvhDgiEkcc+jj255HzsyrHpOlf03V1utbwxRBHROKIQx3HSfPI7dP15+l6X47vi8ilVuKISBxxuOM4aR65V38e+Vke/SCOiMQRieN955HL0/S3abqML4o4IhJHJI4TgVx+74Ks9Nh0vTVd1/OFEUdE4ohDH8f+LHJOVJ2d0nVSuv49XffwxRFHJI7EEYc6jpNmkXPDtW+anpuuS9hlhzgicSSOOPRxnDSLXBBWHpmmV6bp+3yJxBGJI3HEoY9j/9nIOdnq7JBWjkrX2Tm+FR1fKHFE4kgccXjjOGkeOZJWlqXrcWn1xeyyQxyROBJHHPo4TppHzkurdw7TM9L1bXbZIY5IHPmccOjjOGkeOT9b3T2z0mvS9Wu+YOKIxBFx6OPYn0c2sirzoj22b7rey6VW4ojEEXHo4/g7LrkenlZ/tR9J9msljkgcEYnjpEuuz0qvr+SXJHFE4ohIHO+zHd3aHbPSGTm+FV2XA4A4InFEHPo4Tjz+EVXn4HR9IF3XcWcrcUTiiDj0cZw0i1yQVh+XVn8uXTel614OCOKIxBFxqOM4aRa5S5helq4vpet2DgriiMQRsQGNRjR7o9nqHJymM9J1RboKBwdxROKIxBHG55EL0sox6Tq3v5Cv5iAhjkgckTjC+DxyaVp9Sro+2N9ph3kkcUTiiMQR+vPI/dN0Wpo+na6aA4Y4InFE4gjj88h5WZXD0nR6fx7JpVbiiMQRiSP055Hbpuux6XpzWn1jshUdcUTiiMQR1s8jl6XVx6frPek1W9ERRySOSBxh0jxyv7TyF2m6hAOJOCJxROIIE4E8fO38rHRoWnlpuq4mjsQRiSMSRxifRc6JqrNduo5K11lp9Z3EkTgicUTiCOOzyJG0emmaHpuui3P43vpBHJE4InGE3zuLnBvtzm5Zlael6ZvEkTgicUTiCOPPRjay1ZmXVWevtHJ6um4kjsQRiSMSRxifRzbSymi4HppWvytdd8/i5yOJIxJHJI6wSZdcj0mvP5+ue3L27ddKHJE4InGETb7kujCr8ux0fSfHX421jjgiEkckjjB+yXVZus7sB2MlcUQkjkgcYcMjIIek1R9I17XpWkscEYkjEkfYMI98cnr93zn+/kjiiEgckThCNHuNOHzNkqz0knR9JV13EUdE4ojEEcZnkSNZdQ5I11npumwG7bRDHJE4InGELT6L3CatflRafX4/KmuIIyJxROII47PIpWl6epreP8132iGOSByROMKUziNHs93ZN01/ma7P9nfaIY5IHIkjEkeIVnd+WjksXa/tzyNXEUckjsQRiSOMzyO3T6sfk6az03XNNNmKjjgicUTiCNNiHrl7WnlSmi6cBo9+EEckjkgcYRrNIyvtm1aelq5Lt+KlVuKIxBGJI0zDeaTr4HS9KK3+ZU79hubEEYkjEkeYtvPI7dLqQ8PK2el1IY5IHBGJI0x+PrLdsTRdTByROCISR2j092pdsXo0q7JzWjkxXT8ijkgcEYkjjM8iG1l15qZr93S9Mq2+jTgicUQkjjA+i2yk1SNh5YB0vTO9vnszPx9JHJE4InGEGX3JdV62O49O06fSpc0USeKIxBGJI8yKS67bpZXn9reiqx/g4x/EEYkjEkeYVZdc906rz0jXT9LV2cRIEkckjkgcYVY+/nFUut6drp+nazVxROKIxBFgfB65ICs9OV0fTddNA8wjiSMSRySOMOvnkTum66/TdUm67iGOSByROAJsmEfun1a/OV2X/4FLrcQRiSMSRxi6eeQxaTo3XT8ljkgckTgCNNZvR7c4K52Srvel6xbiiMQRiSPA+CxyJKvO3ul6cbo+ma5CHJE4InEEGJ9Fzk+rH5Gm16frW+n1/yWOSByROAKMzyK3z/F55KOIIxJHJI4AG+aRI9HsjRJHJI5IHAEGhDgicUTiCEAckTgicQQgjkgckTgCDBrHi9K1ihMPiSNOW00/D9fzWLFhKuO4JFzHp9VXcxIiccTpZV3CdEaa9g7XNqzYMLV3trpG0+ptw8rr0+uaExKJI04D35ftsUdGq7sgqsJCDVsxks3enDhi9e5Z6bx0jeXGvxoLkTjiA3Vdf8RzRVr5k2h1+aUI0yySre7crDpHpeuLOf5qLCKJxBG3ZBS7afXP0+pXhGsnVmGY7pdbt0urn5FWf6cfyXWcyEgccTO6Ml3XpevcsHIQqy7MrEha2TtNZ6Trx5M2NUckjriprknXzWn6cLbL46LZm89KCzN1Hjkv250j0nR+uq7p/8XHSY7EEQfx3nTd0R/ZnBqt7vasrjBb5pGL0spT0vWxdN2UrrWc8EgccSPmiiVdl6XVfx+uB7GawnSfKy6PqrMkWt05A/332vU+afXL0/W/6bqLeSRxJI74e1zb34nrX8JKm1UXZkocP5pWIl1HxGHrBr51Ol0r0vXGdH2bS63EkTjib/nrdP1nWn1KNHsLWHFhxjBpb9UvhOnlaeUhmzCPnJ9WPyFd56brai61EkfiOPQqTZ9L12lRld1ZaWEmx7HXnwl8MEx/Ea6BD+ioyrJ0PT1N7+sP3VkkiCNxHC5XpevytPrvol0/Ito1iyzMijhO3E12XbrOD9fx0epuN3Ak2/V+afUL+/NILrUSR+I4HF6Vprek6/Hp4tEMmHVxnPwX4PfT9Y9p5YhNeQ4pXa00nd7/32HxII7EcXZ6c7rek1aflK2xnaLZm8PKCrM5jhPW6bo0TK9NK/sPOIts5JErF6XVj0/X29N1PQsJccRZY0nTF9J1apr2i6rMZUWFYYrjxKXWW9L1iTA9O1w7DziLHAkru6XryWn6QH8rOhYX4ogz09Xp+m6aXpdVWRFVWcRKCsMax8mXWq9N1/vCyuOi1V044CxyXlb1vul6Trq+krxkmTjiTPPGNL09TY/OqrM0mr0RVlEgjhscS9fP0/XWrDoHRbM3d8D/z23TyiFpelW6rmLBIY447b07XRel64Q07RqtLpdQgTjej/eE1z8M0yvSykCvmYlmb05WZfs0tdL1z+m6lQWIOOI0fDTD6svCynPStUe4eMciEMcB9ky8O0xfDteTwzXQLhhRldF0LYmqPjat/kz/VymLEnHEre/t6Xp9tsb2j6osZLUE4rjp+yfW4bo42mMHb8JerXPT6u3T9fz0+sfsskMccSvecGP6YFSdQ9K1gEczgDhuvlfSrEzXP8TytUvTypwB/3lG44jVS9Pq7C+mbGhOHHGqXidluiJcx6Rp3qB/4AIQx400vP5NWnlOmLYL1+ig/2xRlQPT9d503dmPLgsYccTN78r0+ldRledHVbj7FGBLx7HvmjB9JVx/HK4l0eoOHsl2fUxa/ZX+hgT8kiSOuNmiqN+k60155Ko9uHwKMLVxXL/TTrguTCtHppXtB30+Kl1z0vWK9Pr7/UiyuBFH3PSH+G9J039m1TmCxzIAtm4cJ7whXX8bVecRaYPtrBHN3pw8cuXuafXZ/VdjdVjoiCMOdD/A7Wm6JE2nhGsxKyDA9Inj+KVW1+VpOjVMB2zC4x/z0tRO13vSdU3/L2EWP+KI9/NMcrq+naa/Cyv7sPIBTM84TtpEQB8N1ylhZa9BL+9Eu94+q/rktPoT6bqJxz+II/5/dtP10zS9I9tlRTR781j1AKZ/HCf8VbrOTdexWXV22oR55N7pemW6vti/s5VFkTgOu2v772V9b7pOiFZ3W1Y7gJkXxwm/F6YMK+20wXbkiGZvblZqpulN6fo280jiOKSu6+9s88m0+tRw7coqBzDz4zjx5o//CdPLwnVQuAa71FqVxf03kf9zf1PzNSyYxHFoLqGaLk3T6WHlEFY3gNkVxwnvSNfF4XputMd22YTt6HZLq09J14f676JkEwHiOJvvQr1y/C05smj25rOyAczeOE54Xf+u1CdGs7dgE/79HpamF6brv9nUnDjOOk13pOld6XpyVGUpKxrA8MRxwu+E6Z/SyuGD/jtGszcvrV6RrkjX97mrlTjOfOtuuj6fVj8z2jWPZgAMcRwnXrJ8aZhOD9e+A0fStVO6HpOmc9Jq3h9JHGeq30nTS9K1PF1s+QZAHNfPV25N12fC9ZxodZcMHMmq7JlVeXK6Lk6vudRKHGeK16brzWm151HdRdHssYABEMf/f5eddF2frg+mlT+KZm+gN5TH8nvnpevAND03rf4aCy9xnNa721j9njQ9IU078+YMAOK4sTuA/Cxc56SVgwcKZKvbiHZn27T64el6Q3+/VhZj4jidHmv6Ulp5drTLg6Jds7sNAHEc+MFnpeuKMP1NuHYfcBY5Eq4d0nRUmt6VVrPLDnHc2l6ZplenlYdl1VnI66QAiOMDnUfeM37TTnnKoFtmRVVGozW2LKtyfLo+13/fHQs1cZxKb03XueE6IistilaXS6gAxHGz7itZ0vW+bI81o9nb6F12otlrZNWZG1VntzSdmq4fsWATxym5E9vqz0dVjk3XwnARRQDiuOV+SYbX96TrzLSyZ7hGw7XR88isNBKu/dL1xv7NP+yyQxy3wFyx/n5aeXYcvnZxVIXLpwDEceoM0zXhemG4don22Gi0ugN9TlGVI9LqD6TrN2wiQBw3g6vTdUNa/XfR6u7CSgRAHLduJF1fCSvHpmvHQV+NFc3ewrTy1PT6C/29X/klSRw3ZS5+S5r+K1yPZAUCII7TzfOi3VmRVnYY9DOLVndZWv2ydH2vfwPQOhZ94rgR3pZeXxZVOY6VB4A4TuNfkfVtaeV1YTooXIsGjqTr4HS9pf8ZriSOxPH3PsTv+mG6XhqHr13CqgNAHGfETjth+na6XhCuA6PVHfh1P1GVY9LqD/W391pDHInjpL2Af5ymt0e78xAeywAgjjPREq6PpZWT0spe0eyNDhTI5fcuTtez0utPp+sm4jjUcVybrp+n6cJw/VG4FrDSABDHme5N6frnMP1xWtlpwFnkSLQ7+6TVr0rXV9N1J3Ecujjekq5PpemZUZUdWWEAiONs+8v/x2mKMLXCtd2As8j54ToyXW9K13f7+78Sx9kdxzpdX0nTq7PVecigVx4AgDjOJJWuS8P1yrBycLS6A238HFXZPisdn6bz+5uaryGOs/J5xR+k66y0UkWruw2rCgBxHBZ/k66PpetZ2R7bY5DnI6PZG8mqs1e6npGuD6XrZuI4a55XvD5N/5ZWHx8u7kIFII5D68/DdWGajk8rAz36Ea3u/Kz0sHS9LF1f7N/eTxxnpnen6aI0PTOs7MMqAkAccfzS6PfCdHa4jgjX3EE+73AtTtcRafo/afpB/519xHHmXEL9Rlr5q6zKwYNsaA8AxHFYrNP1jXD9XbTH9tyEvVqXZVUel65z0usbZ8FWdLM5juvS6hvSlOk6KlpdHs0AII64EfPIL6Xrz6LZG+z9kc3eaFrZK00nptX/la4OcZxu1p10/Uda/eho18tYMQCIIw7mteH1x9PKYwb9DqLVnZ9W75uuU9P19Rn61o/ZF0erL82qPCldzBUBiCM+wJnUlWE6J1wPGziSrkXp2j+svD6tvok4bjV/mqbT0uoDY8XqedHssVAAEEd8wPMpV0nXD8L1qmh1dxr0O4mqLM5W5/B0XUAcp/SX4u1p9VlpOjSsbMuLhwGII1HbMs/BKV1fTSsnRLM30E0ccfjakbSyJKvyxDR9nThu0blit/8cazuqerto12wQDkAcieMURPKe8PrDaaU5UCBb3Ua0O6Ph2jldp6XpWuK42b0iq/KUbHW3TxdRBADiuBW8NUxvDdcBYWXuxj7+Ea5xq7JHmt6SXt8xDW/amSlxXNd/VvXqdL0uXHtmVRrMFQGAOE6DGz7Cyl9l1dkj22MD3fARzd68rDpHpOuD/V121hDHgW6Y+nWa3hVVeQRnPwAQx+np57Iqx0fV2SWtDPb+yFZ3u6zKKem6NF13T4NfktM5jmvTdWt6/cm08ieDzn8BgDjiFBtej6Xr38LUDteScA10h2S49kzTa9L17f4NQOuI433mvXel65tp9Qui1V3KGQ8AxHEmRdJ0Q7jeEK7Doj227SZsR/fwNP1run6arpXEUavS9f10ZbgewpkOAMRxRv+S1BVp5YXpOmDQja2j2VuQVh7XfzXW9VN8qXU6xfHq9PpDURXnDAcA4ji7/FBYOTmt7Dnodxqt7pI0PT9dn+kHad2QxPHmdH0uXScNus8tAABxnDnzyDvSdU6YHh+uwXface2Xptf2b9pZPYvjeE+6Lk3Tq6M9tvugl6QBAIjjzHx/5E/SdUa4qmh1Fw4cyaqsSNM56fruLIvj6nRdnqY3huuwQd+tCQBAHGe+nXR9OV2vSCsHDTKPjGavESvWLErXcen693RdNwvieGW6zgvTE6IqXEIFAOI45N6WrovD9Ly0ssdAvyBb3TnR7uyepuem6yPpumMGxvGOdH04XU/L9thu0eyx5RsAEEdc/1D7L9P0rjAdH64lA0XSNS9NB6fpZf0XNa+eAXHs9menL0srB0WrO4+zFwCII/4ux/qvxnpbWDkyWt1tBopkVbbNqlRpynT9cJrGcW26fpKmSKuPDNcizloAII64Md6drm+l6zXZHntwNHsbvRVdNHsjWXV2SiuPT9P56bppGsXxljT9S1p5XFhZxtkKAMQRN+k5v3D9T5qelVYWD/QrstWdm1b2StfJ6fpEuuqtGMdOuj6VVp6U7bLnILEHACCO+PsuQ94QpovCdUy4BprNhWtBmvZL0wv626+tncI4rk2rf5SuZ6Vrf+aKAEAccXO7Ml3XhevcaI89aNDjIqqyKNudQ9P1f/o7z2zhONa3hZU3pNUHhGshZyYAEEfc0s9H3pCuF0Wzt91AgWz25qSVxVl1VqTp/f0bgDZ/HK2+OFtjh8aAl4IBAIgjPlAVXn8vrfzJwL8iW92RNC0O1xPTdFn/VVCbI45XhJXj0uodotmbw9kIAMQRt4br0lWH6SP97dbmDLIPabhG0rRNVOX56fVdv7Wh+cbGcV1a/euo6pdGVe8YVRmJqnAiAgBxxGnhHeF6W1SdB6eVeYP8cutvR7dzut7cf8Hymo2I4+np9U/T9a/p2oMzDwCII05nr0wrL4zW2J5pZbA7W1vd0aw6h6XpI+n62P3+Z60cHa3uQYO+oxIAgDji1nL1+POR5YQwLRv07RbhWhSuh3E2AQBxxNl6qfWCcB0dVnaMVpdNvQGAOCL2/UW6Iq0sz/bYdtxJCgDEEXGDXw3TaWnloEHnkQAAxBFns93++yNPCdfe4eJSKwAQR8SJTc3TdV64jov22A6cOQBAHBE3+NO08qZ0HRnN3nzOIAAgjogbdtq5JEyvSSs8wgEAxBFxkvek68Nhek6w6w0AEEfE+7w/8tp0vZGzCQCII+IAb+UAACCOSBwBAIgjInEEAOKISBwBgDgiEkcAII6IxBEAiCMicQQAII5IHAEAiCMSRwAA4ojEEQCAOCJxBAAgjkgcAQCIIxJHAADiiMQRAIA4InEEACCOSBwBAIgjEkcAAOKIxBEAgDgicQQAII5IHAEAiCMicQQA4ohIHAGAOCISRwAgjojEEQCAOCJxBAAgjkgcAQCIIxJHAADiiMQRAIA4InEEACCOSBwBAIgjEkcAAOKIxBEAgDgicQQAII5IHAEAiCMSRwAA4ojEEQCAOCJxBAAgjojEEQCIIyJxBADiiEgcAYA4IhJHACCOxBGJIwAAcUTiCABAHJE4AgAQRySOAADEEYkjAABxROIIAEAckTgCABBHJI4AAMQRiSMAAHFE4ggAQByROAIAEEckjgAAxBGJIwAAcUQkjgBAHBGJIwAQR0TiCADEEZE4AgBxZGFH4ggAQByROAIAEEckjgAAxBGJIwAAcUTiCABAHJE4AgAQRySOAADEEYkjAABxROIIAEAckTgCABBHJI4AAMQRiSMAAHFE4ggAQBwRiSMAEEdE4ggAxBGROAIAcUQkjgBAHFnckTgCABBHJI4AAMQRiSMAAHFE4ggAQByROAIAbJY4mr6QrjUs7kgcAQA2xPHQsPL36fUdLPBIHAEA+kRVdsyqY+m6gEUeiSMAwEQgm72RdO2cVp6Upq+z2CNxBABoNBrR6jaiPTYvTXul6yVpupZFH4kjAECj0QjXnHDNi6rsl6Z/Sq87LP5IHAEAGo1GVKURh6+dn1XniHRdlK5V6bqXECBxBAAYv+S6KKtycrq+nq4OkUTiCACw4ZLrHml6bbp+mK6xdK0jDEgcAQDGL7kemqbz03VNulYSB+LIWQEA0Gg0otlbkFYen66PpOvX7LRDHAEAYCKSre6SNL0wXV9I1+1caiWOAAAwEUnX/ml6Q/+mHS61EkcAAFgfyaocma7z0vUDokEcAQBgIpDN3sJ0nZCuD6brBuJBHAEAoNFoRKs7J9pju6XpL9P1yXTdSUSIIwAANBqNcM0N16FpenW6vpKu1cSEOAIAQKPRiKpsG1Yenaaz+psIEBXiCAAA0eyNZNVZlq7j0nRBum4iLMQRAAAajUa0unOzKg9K1zP688iawBBHAABoNBrhWpimh6Xpxen6LrvsEEcAAJiIZFUWZ1VWpCvT9StiQxwBAKDRn0da2TGteJreny4RHeIIAACNRiNa3dE0LQvXiWn6BpdaiSMAAExE0jUvTUujKn+ZXt9OgIgjAABMRLIqc+OIVXuk62ze+EEcAQBgciRb3ZFodx6epk+lq5uue4kScQQAgMb44x/hOilN3+rftMOvSeIIAACNRqMRVVmWptPT66vSVQgUcQQAgEajEc3e3Kw6h6br/6bruv7lVmJFHAEAIFrdhVmVJ6bronTdyJs/iCMAAExE0rVLmk5N0+fSdRvzSOIIAAATkazKgWn6+3R9jZ12iCMAAEwEstmbn1Za6XpHun7MpVbiCAAAE5FsdRen6SnpujBdN/B8JHEEAICJSLr2TNNz03RxusYIGnEEAICJSFbloPHnI/UlokYcAQBgIpDL790mXVWazkzXlcSNOAIAQKPRiFZ3TrQ7S9N0fLr+LV23EjniCAAAjUYjXKPh2idNT0vTJ9K1ktgRRwAAaDQaUZVtoioHp+nF6foWwSOOAADQaDSi2ZuTVWe7tLI8TW/s79dK/IgjAABEqzuSVdkxXUen6X3puosAEkcAAGg0GuGam6alYeXJ6fXX07WGEBJHAABoNBpRlblxVHe3NJ2WruuJIXEEAIBGoxHNXiOtjEZ7bO80ndO/1MpbP4gjAACsj6VreZo+la57iCRxBACAyZGsyonp9U/6kSSOAAAAjUajEcvvXZKuV6XrmnQV4ggAANAYf/wj2p2Hpun8fiRXEkcAAIBGoxGuBeF6QpouGqL3RxJHAADYiEhWZWmaTk3XF9J1C3EEAABoNBrR7I1m1TkwXa9L1zdn8U07xBEAAAaMZKu7IKti6Xp7un44C+eRxBEAADYxkq6laToxTRfMsnkkcQQAgAcYyars3Z9HXjxLNjUnjgAAsBkC2ezNSyuHpOuV6fraDL/UShwBAGAzRrLV3TZNlq4z0nT1DL3UShwBAGALRNK1U5oel6Z/Sa87xBEAAGAiklXZK6vy9DR9njgCAABMBPLwtfOy0sFp5UXpuoo4AgAANBqNaHXnRNVZlK4V6XpTWn0HcQQAAGg0GuEaSauXpOnodF2UXneJIwAAQKPRCCtzoz22S1blpDR9gzgCAAA0Go1o9hrZ6syNqrN7Wnl1um4kjgAAAI1GI1rdRloZCdf+afV56bpjKz8fSRwBAGCaxdLKY9Lrz/a3oruXOAIAADQajWj2FmZVnpmuy9OldK0jjgAAAI1GI1rdZel6U7p+nK4ucQQAAJiIpOvgtPq96fpFutYSRwAAgIlIWjkhvf7MFr6zlTgCAMAMimOz14jD1+yQlU5L1/9uofdHEkcAAJiBkWx1R7Lq7N+fR35jM88jiSMAAMzgSLq2Sas9rf7XdP0kXWuIIwAAQKPRCCs7punkNP1Hum4gjgAAAI1GI5q90Wx3HpymU9P16XTdTRwBAAAajUa0uvPTSjNdr07XN9O1kjgCAAA0Go1wLU6rH5Wmfxzw+UjiCAAAszySVnZLK3+Spnen607iCAAA0OjPIys9OK2c1H8+chVxBAAAaPTnka6HpuuFafU1v2dDc+IIAABDGEnXorT6oLDylvS6EEcAAICJSFpZku3OUWm6iDgCAAA0+nu1rlgzklVZmlaOT9cPiSMAAECj0YhWt5FVZzRcu4TrKD4R2NL8P15Ll6OmltAHAAAAJXRFWHRkYXRlOmNyZWF0ZQAyMDIxLTAxLTI5VDE4OjE5OjE1KzAwOjAwoRT1WwAAACV0RVh0ZGF0ZTptb2RpZnkAMjAyMS0wMS0yOVQxODoxOToxNSswMDowMNBJTecAAAAASUVORK5CYII=;" parent="1" vertex="1">
                    <mxGeometry x="9" y="846.87" width="50" height="56.27" as="geometry"/>
                </mxCell>
                <mxCell id="33" value="Developer" style="text;html=1;strokeColor=none;fillColor=none;align=center;verticalAlign=middle;whiteSpace=wrap;rounded=0;" parent="1" vertex="1">
                    <mxGeometry x="-350" y="310" width="60" height="30" as="geometry"/>
                </mxCell>
                <mxCell id="34" value="Developer" style="text;html=1;strokeColor=none;fillColor=none;align=center;verticalAlign=middle;whiteSpace=wrap;rounded=0;" parent="1" vertex="1">
                    <mxGeometry x="-345" y="900" width="60" height="30" as="geometry"/>
                </mxCell>
                <mxCell id="35" value="ML model&lt;br&gt;Repository" style="text;html=1;strokeColor=none;fillColor=none;align=center;verticalAlign=middle;whiteSpace=wrap;rounded=0;" parent="1" vertex="1">
                    <mxGeometry x="-230" y="310" width="60" height="30" as="geometry"/>
                </mxCell>
                <mxCell id="36" value="Infrastructure&lt;br&gt;Repository" style="text;html=1;strokeColor=none;fillColor=none;align=center;verticalAlign=middle;whiteSpace=wrap;rounded=0;" parent="1" vertex="1">
                    <mxGeometry x="-224.99999999999997" y="900" width="60" height="30" as="geometry"/>
                </mxCell>
                <mxCell id="37" value="Actions" style="text;html=1;strokeColor=none;fillColor=none;align=center;verticalAlign=middle;whiteSpace=wrap;rounded=0;" parent="1" vertex="1">
                    <mxGeometry x="-120" y="310" width="60" height="30" as="geometry"/>
                </mxCell>
                <mxCell id="38" value="Actions" style="text;html=1;strokeColor=none;fillColor=none;align=center;verticalAlign=middle;whiteSpace=wrap;rounded=0;" parent="1" vertex="1">
                    <mxGeometry x="-110" y="900" width="60" height="30" as="geometry"/>
                </mxCell>
                <mxCell id="49" value="Terraform" style="text;html=1;strokeColor=none;fillColor=none;align=center;verticalAlign=middle;whiteSpace=wrap;rounded=0;" parent="1" vertex="1">
                    <mxGeometry x="4.000000000000028" y="900" width="60" height="30" as="geometry"/>
                </mxCell>
                <mxCell id="50" value="Apply AWS resources" style="text;html=1;strokeColor=none;fillColor=none;align=center;verticalAlign=middle;whiteSpace=wrap;rounded=0;" parent="1" vertex="1">
                    <mxGeometry x="169.99999999999997" y="845.86" width="150" height="30" as="geometry"/>
                </mxCell>
                <mxCell id="51" value="commit &amp;amp; push" style="text;html=1;strokeColor=none;fillColor=none;align=center;verticalAlign=middle;whiteSpace=wrap;rounded=0;" parent="1" vertex="1">
                    <mxGeometry x="-315" y="815.86" width="110" height="30" as="geometry"/>
                </mxCell>
                <mxCell id="64" value="&lt;font style=&quot;font-size: 23px;&quot;&gt;Training phase&lt;/font&gt;" style="text;html=1;strokeColor=none;fillColor=none;align=center;verticalAlign=middle;whiteSpace=wrap;rounded=0;" parent="1" vertex="1">
                    <mxGeometry x="-285" y="150" width="255" height="80" as="geometry"/>
                </mxCell>
                <mxCell id="55" value="" style="sketch=0;points=[[0,0,0],[0.25,0,0],[0.5,0,0],[0.75,0,0],[1,0,0],[0,1,0],[0.25,1,0],[0.5,1,0],[0.75,1,0],[1,1,0],[0,0.25,0],[0,0.5,0],[0,0.75,0],[1,0.25,0],[1,0.5,0],[1,0.75,0]];outlineConnect=0;fontColor=#232F3E;gradientColor=#60A337;gradientDirection=north;fillColor=#277116;strokeColor=#ffffff;dashed=0;verticalLabelPosition=bottom;verticalAlign=top;align=center;html=1;fontSize=12;fontStyle=0;aspect=fixed;shape=mxgraph.aws4.resourceIcon;resIcon=mxgraph.aws4.s3;" parent="1" vertex="1">
                    <mxGeometry x="810" y="270" width="50" height="50" as="geometry"/>
                </mxCell>
                <mxCell id="56" value="" style="endArrow=classic;html=1;edgeStyle=orthogonalEdgeStyle;entryX=0;entryY=0.5;entryDx=0;entryDy=0;entryPerimeter=0;" parent="1" source="107" target="55" edge="1">
                    <mxGeometry width="50" height="50" relative="1" as="geometry">
                        <mxPoint x="140" y="300" as="sourcePoint"/>
                        <mxPoint x="180" y="461.9999999999998" as="targetPoint"/>
                    </mxGeometry>
                </mxCell>
                <mxCell id="92" value="Build &amp;amp; Push Image" style="text;html=1;strokeColor=none;fillColor=none;align=center;verticalAlign=middle;whiteSpace=wrap;rounded=0;" parent="1" vertex="1">
                    <mxGeometry x="-80" y="250" width="108" height="30" as="geometry"/>
                </mxCell>
                <mxCell id="99" value="Invoke Lambda Function" style="text;html=1;strokeColor=none;fillColor=none;align=center;verticalAlign=middle;whiteSpace=wrap;rounded=0;" parent="1" vertex="1">
                    <mxGeometry x="-80" y="500" width="148" height="30" as="geometry"/>
                </mxCell>
                <mxCell id="102" value="commit &amp;amp; push" style="text;html=1;strokeColor=none;fillColor=none;align=center;verticalAlign=middle;whiteSpace=wrap;rounded=0;" parent="1" vertex="1">
                    <mxGeometry x="-315" y="220" width="110" height="30" as="geometry"/>
                </mxCell>
                <mxCell id="101" value="Trigger Event" style="text;html=1;strokeColor=none;fillColor=none;align=center;verticalAlign=middle;whiteSpace=wrap;rounded=0;" parent="1" vertex="1">
                    <mxGeometry x="-10" y="340" width="78" height="30" as="geometry"/>
                </mxCell>
            </root>
        </mxGraphModel>
    </diagram>
</mxfile>